<!-- Generated by readme-aura https://github.com/collectioneur/readme-aura -->
<svg width="130" height="40" viewBox="0 0 130 40" xmlns="http://www.w3.org/2000/svg"><mask id="satori_om-id"><rect x="0" y="0" width="130" height="40" fill="#fff"/></mask><path x="0" y="0" width="130" height="40" fill="#0f0f13" d="M20,0 h90 a20,20 0 0 1 20,20 v0 a20,20 0 0 1 -20,20 h-90 a20,20 0 0 1 -20,-20 v0 a20,20 0 0 1 20,-20"/><clipPath id="satori_cp-id-0"><rect x="0" y="0" width="130" height="40"/></clipPath><mask id="satori_om-id-0"><rect x="0" y="0" width="130" height="40" fill="#fff"/></mask><svg x="0" y="0" width="130" height="40" preserveAspectRatio="none" clip-path="url(#satori_cp-id-0)" mask="url(#satori_om-id-0)"><defs><linearGradient id="smb-grad-LeetCode" gradientUnits="objectBoundingBox" x1="0" y1="0" x2="1" y2="1"><stop offset="0%" stop-color="#ffa116"></stop><stop offset="50%" stop-color="#ffb94f"></stop><stop offset="100%" stop-color="#ffa116"></stop><animateTransform attributeName="gradientTransform" type="rotate" from="0 0.5 0.5" to="360 0.5 0.5" dur="8s" repeatCount="indefinite"></animateTransform></linearGradient></defs><rect x="1.25" y="1.25" width="127.5" height="37.5" rx="18.75" ry="18.75" fill="none" stroke="url(#smb-grad-LeetCode)" stroke-width="2" stroke-linecap="round" stroke-linejoin="round"></rect><rect x="0.25" y="0.25" width="129.5" height="39.5" rx="19.75" ry="19.75" fill="none" stroke="#AAAAAA" stroke-width="0.5" stroke-linecap="round" stroke-linejoin="round"></rect></svg><mask id="satori_om-id-0-0"><rect x="0" y="0" width="0" height="40" fill="#fff"/></mask><mask id="satori_om-id-0-0-0"><rect x="0" y="0" width="0" height="40" fill="#fff"/></mask><mask id="satori_om-id-0-0-0-0"><rect x="0" y="0" width="0" height="40" fill="#fff"/></mask><mask id="satori_om-id-0-0-0-1"><rect x="0" y="0" width="0" height="40" fill="#fff"/></mask><mask id="satori_om-id-0-0-0-2"><rect x="0" y="0" width="0" height="40" fill="#fff"/></mask><mask id="satori_om-id-0-0-0-3"><rect x="0" y="0" width="0" height="40" fill="#fff"/></mask><mask id="satori_om-id-0-1"><rect x="0" y="0" width="0" height="40" fill="#fff"/></mask><mask id="satori_om-id-0-2"><rect x="0" y="0" width="0" height="40" fill="#fff"/></mask><mask id="satori_om-id-1"><rect x="0" y="0" width="130" height="40" fill="#fff"/></mask><mask id="satori_om-id-1-0"><rect x="35" y="12" width="60" height="16" fill="#fff"/></mask><g  ><path fill="#f5f5f5" d="M41.9 25L35.9 25L35.9 15.5L37.8 15.5L37.8 23.4L41.9 23.4L41.9 25ZM46.2 25.1L46.2 25.1Q45.1 25.1 44.3 24.7Q43.5 24.3 43.1 23.4Q42.7 22.6 42.7 21.5L42.7 21.5Q42.7 20.4 43.1 19.6Q43.5 18.7 44.3 18.3Q45.0 17.8 46.1 17.8L46.1 17.8Q46.8 17.8 47.4 18.0Q48.0 18.3 48.4 18.7Q48.9 19.2 49.1 19.8Q49.4 20.5 49.4 21.4L49.4 21.4L49.4 21.9L44.5 21.9Q44.6 22.5 44.8 22.9L44.8 22.9Q45.0 23.3 45.3 23.5Q45.7 23.7 46.2 23.7L46.2 23.7Q46.5 23.7 46.8 23.6Q47.1 23.5 47.3 23.3Q47.5 23.1 47.6 22.9L47.6 22.9L49.3 23.2Q49.1 23.8 48.7 24.2Q48.3 24.7 47.6 24.9Q47.0 25.1 46.2 25.1ZM44.6 20.8L44.6 20.8L47.6 20.8Q47.5 20.4 47.4 20.1L47.4 20.1Q47.2 19.7 46.9 19.5Q46.6 19.2 46.1 19.2L46.1 19.2Q45.6 19.2 45.3 19.5Q44.9 19.7 44.7 20.1L44.7 20.1Q44.6 20.4 44.6 20.8ZM53.7 25.1L53.7 25.1Q52.6 25.1 51.8 24.7Q51.1 24.3 50.6 23.4Q50.2 22.6 50.2 21.5L50.2 21.5Q50.2 20.4 50.6 19.6Q51.0 18.7 51.8 18.3Q52.6 17.8 53.6 17.8L53.6 17.8Q54.3 17.8 54.9 18.0Q55.5 18.3 56.0 18.7Q56.4 19.2 56.7 19.8Q57.0 20.5 57.0 21.4L57.0 21.4L57.0 21.9L52.1 21.9Q52.1 22.5 52.3 22.9L52.3 22.9Q52.5 23.3 52.9 23.5Q53.2 23.7 53.7 23.7L53.7 23.7Q54.1 23.7 54.4 23.6Q54.6 23.5 54.8 23.3Q55.0 23.1 55.1 22.9L55.1 22.9L56.8 23.2Q56.7 23.8 56.2 24.2Q55.8 24.7 55.2 24.9Q54.5 25.1 53.7 25.1ZM52.1 20.8L52.1 20.8L55.1 20.8Q55.1 20.4 55.0 20.1L55.0 20.1Q54.8 19.7 54.5 19.5Q54.1 19.2 53.6 19.2L53.6 19.2Q53.1 19.2 52.8 19.5Q52.4 19.7 52.3 20.1L52.3 20.1Q52.1 20.4 52.1 20.8ZM60.2 17.9L61.6 17.9L61.6 19.4L60.2 19.4L60.2 22.9Q60.2 23.3 60.4 23.4Q60.5 23.6 60.9 23.6L60.9 23.6Q61.0 23.6 61.2 23.6Q61.4 23.5 61.5 23.5L61.5 23.5L61.8 24.9Q61.5 25.0 61.1 25.1Q60.8 25.1 60.5 25.1L60.5 25.1Q59.5 25.1 58.9 24.6Q58.3 24.1 58.3 23.1L58.3 23.1L58.3 19.4L57.4 19.4L57.4 17.9L58.3 17.9L58.3 16.2L60.2 16.2L60.2 17.9ZM66.8 25.1L66.8 25.1Q65.5 25.1 64.5 24.6Q63.5 24.0 63.0 22.9Q62.4 21.8 62.4 20.3L62.4 20.3Q62.4 18.7 63.0 17.6Q63.6 16.6 64.5 16.0Q65.5 15.4 66.8 15.4L66.8 15.4Q67.6 15.4 68.3 15.6Q69.0 15.9 69.5 16.3Q70.1 16.7 70.4 17.4Q70.7 18.0 70.9 18.8L70.9 18.8L68.9 18.8Q68.8 18.4 68.7 18.1Q68.5 17.8 68.2 17.6Q67.9 17.4 67.6 17.2Q67.2 17.1 66.8 17.1L66.8 17.1Q66.1 17.1 65.5 17.5Q65.0 17.9 64.7 18.6Q64.4 19.3 64.4 20.3L64.4 20.3Q64.4 21.3 64.7 22.0Q65.0 22.7 65.5 23.1Q66.1 23.4 66.8 23.4L66.8 23.4Q67.2 23.4 67.6 23.3Q67.9 23.2 68.2 23.0Q68.5 22.8 68.7 22.5Q68.8 22.1 68.9 21.8L68.9 21.8L70.9 21.8Q70.8 22.4 70.5 23.0Q70.2 23.6 69.6 24.1Q69.1 24.6 68.4 24.9Q67.7 25.1 66.8 25.1ZM75.2 25.1L75.2 25.1Q74.1 25.1 73.4 24.7Q72.6 24.2 72.2 23.4Q71.7 22.6 71.7 21.5L71.7 21.5Q71.7 20.4 72.2 19.6Q72.6 18.7 73.4 18.3Q74.1 17.8 75.2 17.8L75.2 17.8Q76.3 17.8 77.1 18.3Q77.8 18.7 78.3 19.6Q78.7 20.4 78.7 21.5L78.7 21.5Q78.7 22.6 78.3 23.4Q77.8 24.2 77.1 24.7Q76.3 25.1 75.2 25.1ZM75.2 23.6L75.2 23.6Q75.7 23.6 76.1 23.4Q76.4 23.1 76.6 22.6Q76.7 22.1 76.7 21.5L76.7 21.5Q76.7 20.8 76.6 20.4Q76.4 19.9 76.1 19.6Q75.7 19.3 75.2 19.3L75.2 19.3Q74.7 19.3 74.4 19.6Q74.0 19.9 73.8 20.4Q73.7 20.8 73.7 21.5L73.7 21.5Q73.7 22.1 73.8 22.6Q74.0 23.1 74.4 23.4Q74.7 23.6 75.2 23.6ZM82.4 25.1L82.4 25.1Q81.6 25.1 80.9 24.7Q80.3 24.3 79.9 23.5Q79.5 22.6 79.5 21.5L79.5 21.5Q79.5 20.3 79.9 19.4Q80.3 18.6 80.9 18.2Q81.6 17.8 82.4 17.8L82.4 17.8Q83.0 17.8 83.4 18.0Q83.8 18.2 84.0 18.5Q84.3 18.8 84.4 19.1L84.4 19.1L84.5 19.1L84.5 15.5L86.4 15.5L86.4 25L84.5 25L84.5 23.9L84.4 23.9Q84.3 24.1 84.0 24.4Q83.8 24.7 83.4 24.9Q83.0 25.1 82.4 25.1ZM83.0 23.6L83.0 23.6Q83.5 23.6 83.8 23.3Q84.1 23.1 84.3 22.6Q84.5 22.1 84.5 21.5L84.5 21.5Q84.5 20.8 84.3 20.3Q84.2 19.9 83.8 19.6Q83.5 19.3 83.0 19.3L83.0 19.3Q82.5 19.3 82.1 19.6Q81.8 19.9 81.6 20.4Q81.5 20.8 81.5 21.5L81.5 21.5Q81.5 22.1 81.6 22.6Q81.8 23.0 82.1 23.3Q82.5 23.6 83.0 23.6ZM91.0 25.1L91.0 25.1Q89.9 25.1 89.1 24.7Q88.3 24.3 87.9 23.4Q87.5 22.6 87.5 21.5L87.5 21.5Q87.5 20.4 87.9 19.6Q88.3 18.7 89.1 18.3Q89.9 17.8 90.9 17.8L90.9 17.8Q91.6 17.8 92.2 18.0Q92.8 18.3 93.3 18.7Q93.7 19.2 94.0 19.8Q94.2 20.5 94.2 21.4L94.2 21.4L94.2 21.9L89.4 21.9Q89.4 22.5 89.6 22.9L89.6 22.9Q89.8 23.3 90.2 23.5Q90.5 23.7 91.0 23.7L91.0 23.7Q91.4 23.7 91.6 23.6Q91.9 23.5 92.1 23.3Q92.3 23.1 92.4 22.9L92.4 22.9L94.1 23.2Q94.0 23.8 93.5 24.2Q93.1 24.7 92.5 24.9Q91.8 25.1 91.0 25.1ZM89.4 20.8L89.4 20.8L92.4 20.8Q92.4 20.4 92.3 20.1L92.3 20.1Q92.1 19.7 91.7 19.5Q91.4 19.2 90.9 19.2L90.9 19.2Q90.4 19.2 90.1 19.5Q89.7 19.7 89.6 20.1L89.6 20.1Q89.4 20.4 89.4 20.8Z "/></g></svg>