<!-- Generated by readme-aura https://github.com/collectioneur/readme-aura -->
<svg width="150" height="44" viewBox="0 0 150 44" xmlns="http://www.w3.org/2000/svg"><mask id="satori_om-id"><rect x="0" y="0" width="150" height="44" fill="#fff"/></mask><path x="0" y="0" width="150" height="44" fill="#0f0f13" d="M22,0 h106 a22,22 0 0 1 22,22 v0 a22,22 0 0 1 -22,22 h-106 a22,22 0 0 1 -22,-22 v0 a22,22 0 0 1 22,-22"/><clipPath id="satori_cp-id-0"><rect x="0" y="0" width="150" height="44"/></clipPath><mask id="satori_om-id-0"><rect x="0" y="0" width="150" height="44" fill="#fff"/></mask><svg x="0" y="0" width="150" height="44" preserveAspectRatio="none" clip-path="url(#satori_cp-id-0)" mask="url(#satori_om-id-0)"><defs><linearGradient id="smb-grad-Email" gradientUnits="objectBoundingBox" x1="0" y1="0" x2="1" y2="1"><stop offset="0%" stop-color="#00ff88"></stop><stop offset="50%" stop-color="#00c3ff"></stop><stop offset="100%" stop-color="#00ff88"></stop><animateTransform attributeName="gradientTransform" type="rotate" from="0 0.5 0.5" to="360 0.5 0.5" dur="8s" repeatCount="indefinite"></animateTransform></linearGradient></defs><rect x="1.25" y="1.25" width="147.5" height="41.5" rx="20.75" ry="20.75" fill="none" stroke="url(#smb-grad-Email)" stroke-width="2" stroke-linecap="round" stroke-linejoin="round"></rect><rect x="0.25" y="0.25" width="149.5" height="43.5" rx="21.75" ry="21.75" fill="none" stroke="#AAAAAA" stroke-width="0.5" stroke-linecap="round" stroke-linejoin="round"></rect></svg><mask id="satori_om-id-0-0"><rect x="0" y="0" width="0" height="44" fill="#fff"/></mask><mask id="satori_om-id-0-0-0"><rect x="0" y="0" width="0" height="44" fill="#fff"/></mask><mask id="satori_om-id-0-0-0-0"><rect x="0" y="0" width="0" height="44" fill="#fff"/></mask><mask id="satori_om-id-0-0-0-1"><rect x="0" y="0" width="0" height="44" fill="#fff"/></mask><mask id="satori_om-id-0-0-0-2"><rect x="0" y="0" width="0" height="44" fill="#fff"/></mask><mask id="satori_om-id-0-0-0-3"><rect x="0" y="0" width="0" height="44" fill="#fff"/></mask><mask id="satori_om-id-0-1"><rect x="0" y="0" width="0" height="44" fill="#fff"/></mask><mask id="satori_om-id-0-2"><rect x="0" y="0" width="0" height="44" fill="#fff"/></mask><mask id="satori_om-id-1"><rect x="0" y="0" width="150" height="44" fill="#fff"/></mask><mask id="satori_om-id-1-0"><rect x="58" y="14" width="34" height="16" fill="#fff"/></mask><g  ><path fill="#f5f5f5" d="M65.2 27L58.9 27L58.9 17.5L65.2 17.5L65.2 19.1L60.8 19.1L60.8 21.4L64.9 21.4L64.9 23.0L60.8 23.0L60.8 25.4L65.2 25.4L65.2 27ZM68.4 27L66.5 27L66.5 19.9L68.3 19.9L68.3 21.3Q68.5 20.9 68.7 20.6L68.7 20.6Q69.0 20.2 69.5 20.0Q69.9 19.8 70.4 19.8L70.4 19.8Q71.1 19.8 71.6 20.3L71.6 20.3Q72.0 20.7 72.2 21.4L72.2 21.4Q72.4 21.0 72.6 20.7L72.6 20.7Q73.0 20.2 73.5 20.0Q73.9 19.8 74.5 19.8L74.5 19.8Q75.1 19.8 75.6 20.1Q76.2 20.4 76.5 20.9Q76.7 21.4 76.7 22.2L76.7 22.2L76.7 27L74.8 27L74.8 22.6Q74.8 22.0 74.5 21.7Q74.2 21.4 73.7 21.4L73.7 21.4Q73.4 21.4 73.1 21.5Q72.8 21.7 72.7 22.0Q72.5 22.3 72.5 22.6L72.5 22.6L72.5 27L70.7 27L70.7 22.5Q70.7 22.0 70.4 21.7Q70.1 21.4 69.6 21.4L69.6 21.4Q69.3 21.4 69.0 21.5Q68.7 21.7 68.6 22.0Q68.4 22.3 68.4 22.7L68.4 22.7L68.4 27ZM80.2 27.1L80.2 27.1Q79.5 27.1 78.9 26.9Q78.4 26.7 78.1 26.2Q77.8 25.7 77.8 25.0L77.8 25.0Q77.8 24.4 78.0 24.0Q78.2 23.6 78.6 23.4Q79.0 23.1 79.5 23.0Q79.9 22.9 80.5 22.8L80.5 22.8Q81.1 22.8 81.5 22.7Q81.8 22.7 82.0 22.5Q82.2 22.4 82.2 22.2L82.2 22.2L82.2 22.2Q82.2 21.9 82.1 21.7Q81.9 21.4 81.7 21.3Q81.4 21.2 81.1 21.2L81.1 21.2Q80.7 21.2 80.4 21.3Q80.2 21.4 80.0 21.6Q79.8 21.8 79.7 22.0L79.7 22.0L78.0 21.8Q78.2 21.1 78.6 20.7Q79.0 20.3 79.7 20.0Q80.3 19.8 81.1 19.8L81.1 19.8Q81.7 19.8 82.2 20.0Q82.7 20.1 83.2 20.4Q83.6 20.7 83.8 21.1Q84.1 21.6 84.1 22.2L84.1 22.2L84.1 27L82.3 27L82.3 26.0L82.2 26.0Q82.1 26.3 81.8 26.6Q81.5 26.8 81.1 27.0Q80.7 27.1 80.2 27.1ZM80.7 25.8L80.7 25.8Q81.1 25.8 81.5 25.6Q81.8 25.4 82.0 25.1Q82.2 24.8 82.2 24.5L82.2 24.5L82.2 23.7Q82.1 23.8 81.9 23.8Q81.8 23.9 81.6 23.9Q81.4 23.9 81.2 24.0Q81.0 24.0 80.8 24.0L80.8 24.0Q80.4 24.1 80.2 24.2Q79.9 24.3 79.8 24.5Q79.6 24.7 79.6 25.0L79.6 25.0Q79.6 25.2 79.8 25.4Q79.9 25.6 80.1 25.7Q80.4 25.8 80.7 25.8ZM87.4 27L85.5 27L85.5 19.9L87.4 19.9L87.4 27ZM86.5 19.0L86.5 19.0Q86.0 19.0 85.7 18.7Q85.4 18.4 85.4 18.0L85.4 18.0Q85.4 17.6 85.7 17.3Q86.0 17.0 86.5 17.0L86.5 17.0Q86.9 17.0 87.2 17.3Q87.5 17.6 87.5 18.0L87.5 18.0Q87.5 18.4 87.2 18.7Q86.9 19.0 86.5 19.0ZM88.8 17.5L90.7 17.5L90.7 27L88.8 27L88.8 17.5Z "/></g></svg>