<!-- Generated by readme-aura https://github.com/collectioneur/readme-aura -->
<svg width="150" height="44" viewBox="0 0 150 44" xmlns="http://www.w3.org/2000/svg"><mask id="satori_om-id"><rect x="0" y="0" width="150" height="44" fill="#fff"/></mask><path x="0" y="0" width="150" height="44" fill="#0f0f13" d="M22,0 h106 a22,22 0 0 1 22,22 v0 a22,22 0 0 1 -22,22 h-106 a22,22 0 0 1 -22,-22 v0 a22,22 0 0 1 22,-22"/><clipPath id="satori_cp-id-0"><rect x="0" y="0" width="150" height="44"/></clipPath><mask id="satori_om-id-0"><rect x="0" y="0" width="150" height="44" fill="#fff"/></mask><svg x="0" y="0" width="150" height="44" preserveAspectRatio="none" clip-path="url(#satori_cp-id-0)" mask="url(#satori_om-id-0)"><defs><linearGradient id="smb-grad-LeetCode" gradientUnits="objectBoundingBox" x1="0" y1="0" x2="1" y2="1"><stop offset="0%" stop-color="#ffa116"></stop><stop offset="50%" stop-color="#ffb94f"></stop><stop offset="100%" stop-color="#ffa116"></stop><animateTransform attributeName="gradientTransform" type="rotate" from="0 0.5 0.5" to="360 0.5 0.5" dur="8s" repeatCount="indefinite"></animateTransform></linearGradient></defs><rect x="1.25" y="1.25" width="147.5" height="41.5" rx="20.75" ry="20.75" fill="none" stroke="url(#smb-grad-LeetCode)" stroke-width="2" stroke-linecap="round" stroke-linejoin="round"></rect><rect x="0.25" y="0.25" width="149.5" height="43.5" rx="21.75" ry="21.75" fill="none" stroke="#AAAAAA" stroke-width="0.5" stroke-linecap="round" stroke-linejoin="round"></rect></svg><mask id="satori_om-id-0-0"><rect x="0" y="0" width="0" height="44" fill="#fff"/></mask><mask id="satori_om-id-0-0-0"><rect x="0" y="0" width="0" height="44" fill="#fff"/></mask><mask id="satori_om-id-0-0-0-0"><rect x="0" y="0" width="0" height="44" fill="#fff"/></mask><mask id="satori_om-id-0-0-0-1"><rect x="0" y="0" width="0" height="44" fill="#fff"/></mask><mask id="satori_om-id-0-0-0-2"><rect x="0" y="0" width="0" height="44" fill="#fff"/></mask><mask id="satori_om-id-0-0-0-3"><rect x="0" y="0" width="0" height="44" fill="#fff"/></mask><mask id="satori_om-id-0-1"><rect x="0" y="0" width="0" height="44" fill="#fff"/></mask><mask id="satori_om-id-0-2"><rect x="0" y="0" width="0" height="44" fill="#fff"/></mask><mask id="satori_om-id-1"><rect x="0" y="0" width="150" height="44" fill="#fff"/></mask><mask id="satori_om-id-1-0"><rect x="45" y="14" width="60" height="16" fill="#fff"/></mask><g  ><path fill="#f5f5f5" d="M51.9 27L45.9 27L45.9 17.5L47.8 17.5L47.8 25.4L51.9 25.4L51.9 27ZM56.2 27.1L56.2 27.1Q55.1 27.1 54.3 26.7Q53.5 26.3 53.1 25.4Q52.7 24.6 52.7 23.5L52.7 23.5Q52.7 22.4 53.1 21.6Q53.5 20.7 54.3 20.3Q55.0 19.8 56.1 19.8L56.1 19.8Q56.8 19.8 57.4 20.0Q58.0 20.3 58.4 20.7Q58.9 21.2 59.1 21.8Q59.4 22.5 59.4 23.4L59.4 23.4L59.4 23.9L54.5 23.9Q54.6 24.5 54.8 24.9L54.8 24.9Q55.0 25.3 55.3 25.5Q55.7 25.7 56.2 25.7L56.2 25.7Q56.5 25.7 56.8 25.6Q57.1 25.5 57.3 25.3Q57.5 25.1 57.6 24.9L57.6 24.9L59.3 25.2Q59.1 25.8 58.7 26.2Q58.3 26.7 57.6 26.9Q57.0 27.1 56.2 27.1ZM54.6 22.8L54.6 22.8L57.6 22.8Q57.5 22.4 57.4 22.1L57.4 22.1Q57.2 21.7 56.9 21.5Q56.6 21.2 56.1 21.2L56.1 21.2Q55.6 21.2 55.3 21.5Q54.9 21.7 54.7 22.1L54.7 22.1Q54.6 22.4 54.6 22.8ZM63.7 27.1L63.7 27.1Q62.6 27.1 61.8 26.7Q61.1 26.3 60.6 25.4Q60.2 24.6 60.2 23.5L60.2 23.5Q60.2 22.4 60.6 21.6Q61.0 20.7 61.8 20.3Q62.6 19.8 63.6 19.8L63.6 19.8Q64.3 19.8 64.9 20.0Q65.5 20.3 66.0 20.7Q66.4 21.2 66.7 21.8Q67.0 22.5 67.0 23.4L67.0 23.4L67.0 23.9L62.1 23.9Q62.1 24.5 62.3 24.9L62.3 24.9Q62.5 25.3 62.9 25.5Q63.2 25.7 63.7 25.7L63.7 25.7Q64.1 25.7 64.4 25.6Q64.6 25.5 64.8 25.3Q65.0 25.1 65.1 24.9L65.1 24.9L66.8 25.2Q66.7 25.8 66.2 26.2Q65.8 26.7 65.2 26.9Q64.5 27.1 63.7 27.1ZM62.1 22.8L62.1 22.8L65.1 22.8Q65.1 22.4 65.0 22.1L65.0 22.1Q64.8 21.7 64.5 21.5Q64.1 21.2 63.6 21.2L63.6 21.2Q63.1 21.2 62.8 21.5Q62.4 21.7 62.3 22.1L62.3 22.1Q62.1 22.4 62.1 22.8ZM70.2 19.9L71.6 19.9L71.6 21.4L70.2 21.4L70.2 24.9Q70.2 25.3 70.4 25.4Q70.5 25.6 70.9 25.6L70.9 25.6Q71.0 25.6 71.2 25.6Q71.4 25.5 71.5 25.5L71.5 25.5L71.8 26.9Q71.5 27.0 71.1 27.1Q70.8 27.1 70.5 27.1L70.5 27.1Q69.5 27.1 68.9 26.6Q68.3 26.1 68.3 25.1L68.3 25.1L68.3 21.4L67.4 21.4L67.4 19.9L68.3 19.9L68.3 18.2L70.2 18.2L70.2 19.9ZM76.8 27.1L76.8 27.1Q75.5 27.1 74.5 26.6Q73.5 26.0 73.0 24.9Q72.4 23.8 72.4 22.3L72.4 22.3Q72.4 20.7 73.0 19.6Q73.6 18.6 74.5 18.0Q75.5 17.4 76.8 17.4L76.8 17.4Q77.6 17.4 78.3 17.6Q79.0 17.9 79.5 18.3Q80.1 18.7 80.4 19.4Q80.7 20.0 80.9 20.8L80.9 20.8L78.9 20.8Q78.8 20.4 78.7 20.1Q78.5 19.8 78.2 19.6Q77.9 19.4 77.6 19.2Q77.2 19.1 76.8 19.1L76.8 19.1Q76.1 19.1 75.5 19.5Q75.0 19.9 74.7 20.6Q74.4 21.3 74.4 22.3L74.4 22.3Q74.4 23.3 74.7 24.0Q75.0 24.7 75.5 25.1Q76.1 25.4 76.8 25.4L76.8 25.4Q77.2 25.4 77.6 25.3Q77.9 25.2 78.2 25.0Q78.5 24.8 78.7 24.5Q78.8 24.1 78.9 23.8L78.9 23.8L80.9 23.8Q80.8 24.4 80.5 25.0Q80.2 25.6 79.6 26.1Q79.1 26.6 78.4 26.9Q77.7 27.1 76.8 27.1ZM85.2 27.1L85.2 27.1Q84.1 27.1 83.4 26.7Q82.6 26.2 82.2 25.4Q81.7 24.6 81.7 23.5L81.7 23.5Q81.7 22.4 82.2 21.6Q82.6 20.7 83.4 20.3Q84.1 19.8 85.2 19.8L85.2 19.8Q86.3 19.8 87.1 20.3Q87.8 20.7 88.3 21.6Q88.7 22.4 88.7 23.5L88.7 23.5Q88.7 24.6 88.3 25.4Q87.8 26.2 87.1 26.7Q86.3 27.1 85.2 27.1ZM85.2 25.6L85.2 25.6Q85.7 25.6 86.1 25.4Q86.4 25.1 86.6 24.6Q86.7 24.1 86.7 23.5L86.7 23.5Q86.7 22.8 86.6 22.4Q86.4 21.9 86.1 21.6Q85.7 21.3 85.2 21.3L85.2 21.3Q84.7 21.3 84.4 21.6Q84.0 21.9 83.8 22.4Q83.7 22.8 83.7 23.5L83.7 23.5Q83.7 24.1 83.8 24.6Q84.0 25.1 84.4 25.4Q84.7 25.6 85.2 25.6ZM92.4 27.1L92.4 27.1Q91.6 27.1 90.9 26.7Q90.3 26.3 89.9 25.5Q89.5 24.6 89.5 23.5L89.5 23.5Q89.5 22.3 89.9 21.4Q90.3 20.6 90.9 20.2Q91.6 19.8 92.4 19.8L92.4 19.8Q93.0 19.8 93.4 20.0Q93.8 20.2 94.0 20.5Q94.3 20.8 94.4 21.1L94.4 21.1L94.5 21.1L94.5 17.5L96.4 17.5L96.4 27L94.5 27L94.5 25.9L94.4 25.9Q94.3 26.1 94.0 26.4Q93.8 26.7 93.4 26.9Q93.0 27.1 92.4 27.1ZM93.0 25.6L93.0 25.6Q93.5 25.6 93.8 25.3Q94.1 25.1 94.3 24.6Q94.5 24.1 94.5 23.5L94.5 23.5Q94.5 22.8 94.3 22.3Q94.2 21.9 93.8 21.6Q93.5 21.3 93.0 21.3L93.0 21.3Q92.5 21.3 92.1 21.6Q91.8 21.9 91.6 22.4Q91.5 22.8 91.5 23.5L91.5 23.5Q91.5 24.1 91.6 24.6Q91.8 25.0 92.1 25.3Q92.5 25.6 93.0 25.6ZM101.0 27.1L101.0 27.1Q99.9 27.1 99.1 26.7Q98.3 26.3 97.9 25.4Q97.5 24.6 97.5 23.5L97.5 23.5Q97.5 22.4 97.9 21.6Q98.3 20.7 99.1 20.3Q99.9 19.8 100.9 19.8L100.9 19.8Q101.6 19.8 102.2 20.0Q102.8 20.3 103.3 20.7Q103.7 21.2 104.0 21.8Q104.2 22.5 104.2 23.4L104.2 23.4L104.2 23.9L99.4 23.9Q99.4 24.5 99.6 24.9L99.6 24.9Q99.8 25.3 100.2 25.5Q100.5 25.7 101.0 25.7L101.0 25.7Q101.4 25.7 101.6 25.6Q101.9 25.5 102.1 25.3Q102.3 25.1 102.4 24.9L102.4 24.9L104.1 25.2Q104.0 25.8 103.5 26.2Q103.1 26.7 102.5 26.9Q101.8 27.1 101.0 27.1ZM99.4 22.8L99.4 22.8L102.4 22.8Q102.4 22.4 102.3 22.1L102.3 22.1Q102.1 21.7 101.7 21.5Q101.4 21.2 100.9 21.2L100.9 21.2Q100.4 21.2 100.1 21.5Q99.7 21.7 99.6 22.1L99.6 22.1Q99.4 22.4 99.4 22.8Z "/></g></svg>