<!-- Generated by readme-aura https://github.com/collectioneur/readme-aura -->
<svg width="130" height="40" viewBox="0 0 130 40" xmlns="http://www.w3.org/2000/svg"><mask id="satori_om-id"><rect x="0" y="0" width="130" height="40" fill="#fff"/></mask><path x="0" y="0" width="130" height="40" fill="#0f0f13" d="M20,0 h90 a20,20 0 0 1 20,20 v0 a20,20 0 0 1 -20,20 h-90 a20,20 0 0 1 -20,-20 v0 a20,20 0 0 1 20,-20"/><clipPath id="satori_cp-id-0"><rect x="0" y="0" width="130" height="40"/></clipPath><mask id="satori_om-id-0"><rect x="0" y="0" width="130" height="40" fill="#fff"/></mask><svg x="0" y="0" width="130" height="40" preserveAspectRatio="none" clip-path="url(#satori_cp-id-0)" mask="url(#satori_om-id-0)"><defs><linearGradient id="smb-grad-Email" gradientUnits="objectBoundingBox" x1="0" y1="0" x2="1" y2="1"><stop offset="0%" stop-color="#00ff88"></stop><stop offset="50%" stop-color="#00c3ff"></stop><stop offset="100%" stop-color="#00ff88"></stop><animateTransform attributeName="gradientTransform" type="rotate" from="0 0.5 0.5" to="360 0.5 0.5" dur="8s" repeatCount="indefinite"></animateTransform></linearGradient></defs><rect x="1.25" y="1.25" width="127.5" height="37.5" rx="18.75" ry="18.75" fill="none" stroke="url(#smb-grad-Email)" stroke-width="2" stroke-linecap="round" stroke-linejoin="round"></rect><rect x="0.25" y="0.25" width="129.5" height="39.5" rx="19.75" ry="19.75" fill="none" stroke="#AAAAAA" stroke-width="0.5" stroke-linecap="round" stroke-linejoin="round"></rect></svg><mask id="satori_om-id-0-0"><rect x="0" y="0" width="0" height="40" fill="#fff"/></mask><mask id="satori_om-id-0-0-0"><rect x="0" y="0" width="0" height="40" fill="#fff"/></mask><mask id="satori_om-id-0-0-0-0"><rect x="0" y="0" width="0" height="40" fill="#fff"/></mask><mask id="satori_om-id-0-0-0-1"><rect x="0" y="0" width="0" height="40" fill="#fff"/></mask><mask id="satori_om-id-0-0-0-2"><rect x="0" y="0" width="0" height="40" fill="#fff"/></mask><mask id="satori_om-id-0-0-0-3"><rect x="0" y="0" width="0" height="40" fill="#fff"/></mask><mask id="satori_om-id-0-1"><rect x="0" y="0" width="0" height="40" fill="#fff"/></mask><mask id="satori_om-id-0-2"><rect x="0" y="0" width="0" height="40" fill="#fff"/></mask><mask id="satori_om-id-1"><rect x="0" y="0" width="130" height="40" fill="#fff"/></mask><mask id="satori_om-id-1-0"><rect x="48" y="12" width="34" height="16" fill="#fff"/></mask><g  ><path fill="#f5f5f5" d="M55.2 25L48.9 25L48.9 15.5L55.2 15.5L55.2 17.1L50.8 17.1L50.8 19.4L54.9 19.4L54.9 21.0L50.8 21.0L50.8 23.4L55.2 23.4L55.2 25ZM58.4 25L56.5 25L56.5 17.9L58.3 17.9L58.3 19.3Q58.5 18.9 58.7 18.6L58.7 18.6Q59.0 18.2 59.5 18.0Q59.9 17.8 60.4 17.8L60.4 17.8Q61.1 17.8 61.6 18.3L61.6 18.3Q62.0 18.7 62.2 19.4L62.2 19.4Q62.4 19.0 62.6 18.7L62.6 18.7Q63.0 18.2 63.5 18.0Q63.9 17.8 64.5 17.8L64.5 17.8Q65.1 17.8 65.6 18.1Q66.2 18.4 66.5 18.9Q66.7 19.4 66.7 20.2L66.7 20.2L66.7 25L64.8 25L64.8 20.6Q64.8 20.0 64.5 19.7Q64.2 19.4 63.7 19.4L63.7 19.4Q63.4 19.4 63.1 19.5Q62.8 19.7 62.7 20.0Q62.5 20.3 62.5 20.6L62.5 20.6L62.5 25L60.7 25L60.7 20.5Q60.7 20.0 60.4 19.7Q60.1 19.4 59.6 19.4L59.6 19.4Q59.3 19.4 59.0 19.5Q58.7 19.7 58.6 20.0Q58.4 20.3 58.4 20.7L58.4 20.7L58.4 25ZM70.2 25.1L70.2 25.1Q69.5 25.1 68.9 24.9Q68.4 24.7 68.1 24.2Q67.8 23.7 67.8 23.0L67.8 23.0Q67.8 22.4 68.0 22.0Q68.2 21.6 68.6 21.4Q69.0 21.1 69.5 21.0Q69.9 20.9 70.5 20.8L70.5 20.8Q71.1 20.8 71.5 20.7Q71.8 20.7 72.0 20.5Q72.2 20.4 72.2 20.2L72.2 20.2L72.2 20.2Q72.2 19.9 72.1 19.7Q71.9 19.4 71.7 19.3Q71.4 19.2 71.1 19.2L71.1 19.2Q70.7 19.2 70.4 19.3Q70.2 19.4 70.0 19.6Q69.8 19.8 69.7 20.0L69.7 20.0L68.0 19.8Q68.2 19.1 68.6 18.7Q69.0 18.3 69.7 18.0Q70.3 17.8 71.1 17.8L71.1 17.8Q71.7 17.8 72.2 18.0Q72.7 18.1 73.2 18.4Q73.6 18.7 73.8 19.1Q74.1 19.6 74.1 20.2L74.1 20.2L74.1 25L72.3 25L72.3 24.0L72.2 24.0Q72.1 24.3 71.8 24.6Q71.5 24.8 71.1 25.0Q70.7 25.1 70.2 25.1ZM70.7 23.8L70.7 23.8Q71.1 23.8 71.5 23.6Q71.8 23.4 72.0 23.1Q72.2 22.8 72.2 22.5L72.2 22.5L72.2 21.7Q72.1 21.8 71.9 21.8Q71.8 21.9 71.6 21.9Q71.4 21.9 71.2 22.0Q71.0 22.0 70.8 22.0L70.8 22.0Q70.4 22.1 70.2 22.2Q69.9 22.3 69.8 22.5Q69.6 22.7 69.6 23.0L69.6 23.0Q69.6 23.2 69.8 23.4Q69.9 23.6 70.1 23.7Q70.4 23.8 70.7 23.8ZM77.4 25L75.5 25L75.5 17.9L77.4 17.9L77.4 25ZM76.5 17.0L76.5 17.0Q76.0 17.0 75.7 16.7Q75.4 16.4 75.4 16.0L75.4 16.0Q75.4 15.6 75.7 15.3Q76.0 15.0 76.5 15.0L76.5 15.0Q76.9 15.0 77.2 15.3Q77.5 15.6 77.5 16.0L77.5 16.0Q77.5 16.4 77.2 16.7Q76.9 17.0 76.5 17.0ZM78.8 15.5L80.7 15.5L80.7 25L78.8 25L78.8 15.5Z "/></g></svg>