<!-- Generated by readme-aura https://github.com/collectioneur/readme-aura -->
<svg width="130" height="40" viewBox="0 0 130 40" xmlns="http://www.w3.org/2000/svg"><mask id="satori_om-id"><rect x="0" y="0" width="130" height="40" fill="#fff"/></mask><path x="0" y="0" width="130" height="40" fill="#0f0f13" d="M20,0 h90 a20,20 0 0 1 20,20 v0 a20,20 0 0 1 -20,20 h-90 a20,20 0 0 1 -20,-20 v0 a20,20 0 0 1 20,-20"/><clipPath id="satori_cp-id-0"><rect x="0" y="0" width="130" height="40"/></clipPath><mask id="satori_om-id-0"><rect x="0" y="0" width="130" height="40" fill="#fff"/></mask><svg x="0" y="0" width="130" height="40" preserveAspectRatio="none" clip-path="url(#satori_cp-id-0)" mask="url(#satori_om-id-0)"><defs><linearGradient id="smb-grad-Portfolio" gradientUnits="objectBoundingBox" x1="0" y1="0" x2="1" y2="1"><stop offset="0%" stop-color="#aa00ff"></stop><stop offset="50%" stop-color="#e040fb"></stop><stop offset="100%" stop-color="#aa00ff"></stop><animateTransform attributeName="gradientTransform" type="rotate" from="0 0.5 0.5" to="360 0.5 0.5" dur="8s" repeatCount="indefinite"></animateTransform></linearGradient></defs><rect x="1.25" y="1.25" width="127.5" height="37.5" rx="18.75" ry="18.75" fill="none" stroke="url(#smb-grad-Portfolio)" stroke-width="2" stroke-linecap="round" stroke-linejoin="round"></rect><rect x="0.25" y="0.25" width="129.5" height="39.5" rx="19.75" ry="19.75" fill="none" stroke="#AAAAAA" stroke-width="0.5" stroke-linecap="round" stroke-linejoin="round"></rect></svg><mask id="satori_om-id-0-0"><rect x="0" y="0" width="0" height="40" fill="#fff"/></mask><mask id="satori_om-id-0-0-0"><rect x="0" y="0" width="0" height="40" fill="#fff"/></mask><mask id="satori_om-id-0-0-0-0"><rect x="0" y="0" width="0" height="40" fill="#fff"/></mask><mask id="satori_om-id-0-0-0-1"><rect x="0" y="0" width="0" height="40" fill="#fff"/></mask><mask id="satori_om-id-0-0-0-2"><rect x="0" y="0" width="0" height="40" fill="#fff"/></mask><mask id="satori_om-id-0-0-0-3"><rect x="0" y="0" width="0" height="40" fill="#fff"/></mask><mask id="satori_om-id-0-1"><rect x="0" y="0" width="0" height="40" fill="#fff"/></mask><mask id="satori_om-id-0-2"><rect x="0" y="0" width="0" height="40" fill="#fff"/></mask><mask id="satori_om-id-1"><rect x="0" y="0" width="130" height="40" fill="#fff"/></mask><mask id="satori_om-id-1-0"><rect x="39" y="12" width="53" height="16" fill="#fff"/></mask><g  ><path fill="#f5f5f5" d="M41.8 25L39.9 25L39.9 15.5L43.5 15.5Q44.6 15.5 45.4 16.0Q46.1 16.4 46.5 17.1Q46.9 17.8 46.9 18.7L46.9 18.7Q46.9 19.7 46.5 20.4Q46.1 21.1 45.4 21.5Q44.6 21.9 43.5 21.9L43.5 21.9L41.8 21.9L41.8 25ZM41.8 17.1L41.8 20.3L43.2 20.3Q43.8 20.3 44.2 20.1Q44.6 19.9 44.7 19.6Q44.9 19.2 44.9 18.7Q44.9 18.3 44.7 17.9Q44.6 17.5 44.2 17.3Q43.8 17.1 43.2 17.1L43.2 17.1L41.8 17.1ZM51.2 25.1L51.2 25.1Q50.1 25.1 49.4 24.7Q48.6 24.2 48.2 23.4Q47.7 22.6 47.7 21.5L47.7 21.5Q47.7 20.4 48.2 19.6Q48.6 18.7 49.4 18.3Q50.1 17.8 51.2 17.8L51.2 17.8Q52.3 17.8 53.1 18.3Q53.8 18.7 54.3 19.6Q54.7 20.4 54.7 21.5L54.7 21.5Q54.7 22.6 54.3 23.4Q53.8 24.2 53.1 24.7Q52.3 25.1 51.2 25.1ZM51.2 23.6L51.2 23.6Q51.7 23.6 52.1 23.4Q52.4 23.1 52.6 22.6Q52.7 22.1 52.7 21.5L52.7 21.5Q52.7 20.8 52.6 20.4Q52.4 19.9 52.1 19.6Q51.7 19.3 51.2 19.3L51.2 19.3Q50.7 19.3 50.4 19.6Q50.0 19.9 49.9 20.4Q49.7 20.8 49.7 21.5L49.7 21.5Q49.7 22.1 49.9 22.6Q50.0 23.1 50.4 23.4Q50.7 23.6 51.2 23.6ZM57.7 25L55.8 25L55.8 17.9L57.6 17.9L57.6 19.1L57.7 19.1Q57.9 18.5 58.4 18.1Q58.8 17.8 59.4 17.8L59.4 17.8Q59.6 17.8 59.8 17.8Q59.9 17.8 60.1 17.9L60.1 17.9L60.1 19.6Q59.9 19.5 59.7 19.5Q59.4 19.5 59.2 19.5L59.2 19.5Q58.8 19.5 58.4 19.7Q58.1 19.9 57.9 20.2Q57.7 20.5 57.7 21.0L57.7 21.0L57.7 25ZM63.1 17.9L64.4 17.9L64.4 19.4L63.1 19.4L63.1 22.9Q63.1 23.3 63.2 23.4Q63.4 23.6 63.7 23.6L63.7 23.6Q63.9 23.6 64.1 23.6Q64.2 23.5 64.3 23.5L64.3 23.5L64.6 24.9Q64.3 25.0 64.0 25.1Q63.7 25.1 63.4 25.1L63.4 25.1Q62.3 25.1 61.8 24.6Q61.2 24.1 61.2 23.1L61.2 23.1L61.2 19.4L60.2 19.4L60.2 17.9L61.2 17.9L61.2 16.2L63.1 16.2L63.1 17.9ZM67.9 17.9L69.4 17.9L69.4 19.4L67.9 19.4L67.9 25L66.0 25L66.0 19.4L64.8 19.4L64.8 17.9L66.0 17.9L66.0 17.4Q66.0 16.6 66.3 16.1Q66.6 15.6 67.2 15.3Q67.7 15.1 68.3 15.1L68.3 15.1Q68.8 15.1 69.2 15.2Q69.5 15.2 69.7 15.3L69.7 15.3L69.4 16.7Q69.2 16.7 69.1 16.7Q68.9 16.6 68.7 16.6L68.7 16.6Q68.3 16.6 68.1 16.8Q67.9 17.0 67.9 17.4L67.9 17.4L67.9 17.9ZM73.6 25.1L73.6 25.1Q72.5 25.1 71.8 24.7Q71.0 24.2 70.6 23.4Q70.1 22.6 70.1 21.5L70.1 21.5Q70.1 20.4 70.6 19.6Q71.0 18.7 71.8 18.3Q72.5 17.8 73.6 17.8L73.6 17.8Q74.7 17.8 75.5 18.3Q76.2 18.7 76.7 19.6Q77.1 20.4 77.1 21.5L77.1 21.5Q77.1 22.6 76.7 23.4Q76.2 24.2 75.5 24.7Q74.7 25.1 73.6 25.1ZM73.6 23.6L73.6 23.6Q74.1 23.6 74.5 23.4Q74.8 23.1 75.0 22.6Q75.1 22.1 75.1 21.5L75.1 21.5Q75.1 20.8 75.0 20.4Q74.8 19.9 74.5 19.6Q74.1 19.3 73.6 19.3L73.6 19.3Q73.1 19.3 72.8 19.6Q72.4 19.9 72.3 20.4Q72.1 20.8 72.1 21.5L72.1 21.5Q72.1 22.1 72.3 22.6Q72.4 23.1 72.8 23.4Q73.1 23.6 73.6 23.6ZM78.2 15.5L80.1 15.5L80.1 25L78.2 25L78.2 15.5ZM83.4 25L81.5 25L81.5 17.9L83.4 17.9L83.4 25ZM82.5 17.0L82.5 17.0Q82.1 17.0 81.7 16.7Q81.4 16.4 81.4 16.0L81.4 16.0Q81.4 15.6 81.7 15.3Q82.1 15.0 82.5 15.0L82.5 15.0Q82.9 15.0 83.2 15.3Q83.5 15.6 83.5 16.0L83.5 16.0Q83.5 16.4 83.2 16.7Q82.9 17.0 82.5 17.0ZM88.0 25.1L88.0 25.1Q87.0 25.1 86.2 24.7Q85.4 24.2 85.0 23.4Q84.6 22.6 84.6 21.5L84.6 21.5Q84.6 20.4 85.0 19.6Q85.4 18.7 86.2 18.3Q87.0 17.8 88.0 17.8L88.0 17.8Q89.1 17.8 89.9 18.3Q90.7 18.7 91.1 19.6Q91.5 20.4 91.5 21.5L91.5 21.5Q91.5 22.6 91.1 23.4Q90.7 24.2 89.9 24.7Q89.1 25.1 88.0 25.1ZM88.0 23.6L88.0 23.6Q88.5 23.6 88.9 23.4Q89.2 23.1 89.4 22.6Q89.6 22.1 89.6 21.5L89.6 21.5Q89.6 20.8 89.4 20.4Q89.2 19.9 88.9 19.6Q88.5 19.3 88.0 19.3L88.0 19.3Q87.5 19.3 87.2 19.6Q86.8 19.9 86.7 20.4Q86.5 20.8 86.5 21.5L86.5 21.5Q86.5 22.1 86.7 22.6Q86.8 23.1 87.2 23.4Q87.5 23.6 88.0 23.6Z "/></g></svg>