<!-- Generated by readme-aura https://github.com/collectioneur/readme-aura -->
<svg width="860" height="180" viewBox="0 0 860 180" xmlns="http://www.w3.org/2000/svg"><defs><clipPath id="satori_bc-id"><path x="0" y="0" width="860" height="180" d="M16,0 h828 a16,16 0 0 1 16,16 v148 a16,16 0 0 1 -16,16 h-828 a16,16 0 0 1 -16,-16 v-148 a16,16 0 0 1 16,-16"/></clipPath></defs><clipPath id="satori_cp-id"><path x="0" y="0" width="860" height="180" d="M16,0 h828 a16,16 0 0 1 16,16 v148 a16,16 0 0 1 -16,16 h-828 a16,16 0 0 1 -16,-16 v-148 a16,16 0 0 1 16,-16"/></clipPath><mask id="satori_om-id"><rect x="1" y="1" width="858" height="178" fill="#fff"/><path width="860" height="180" fill="none" stroke="#000" stroke-width="2" d="M4.686,4.686 A16,16 0 0 1 16,0 h828 a16,16 0 0 1 16,16 v148 a16,16 0 0 1 -16,16 h-828 a16,16 0 0 1 -16,-16 v-148 A16,16 0 0 1 4.686,4.686"/></mask><path x="0" y="0" width="860" height="180" fill="#0a0a0f" d="M16,0 h828 a16,16 0 0 1 16,16 v148 a16,16 0 0 1 -16,16 h-828 a16,16 0 0 1 -16,-16 v-148 a16,16 0 0 1 16,-16"/><path width="860" height="180" clip-path="url(#satori_bc-id)" fill="none" stroke="rgba(255,255,255,0.05)" stroke-width="2" d="M4.686,4.686 A16,16 0 0 1 16,0 h828 a16,16 0 0 1 16,16 v148 a16,16 0 0 1 -16,16 h-828 a16,16 0 0 1 -16,-16 v-148 A16,16 0 0 1 4.686,4.686"/><clipPath id="satori_cp-id-0" clip-path="url(#satori_cp-id)"><rect x="1" y="1" width="860" height="180"/></clipPath><mask id="satori_om-id-0"><rect x="1" y="1" width="860" height="180" fill="#fff" mask="url(#satori_om-id)"/></mask><svg x="1" y="1" width="860" height="180" preserveAspectRatio="none" clip-path="url(#satori_cp-id-0)" mask="url(#satori_om-id-0)"><defs><radialGradient id="stack-g1" cx="50%" cy="50%" r="50%"><stop offset="0%" stop-color="rgba(80, 200, 120, 0.25)"></stop><stop offset="100%" stop-color="rgba(80, 200, 120, 0)"></stop></radialGradient><radialGradient id="stack-g2" cx="50%" cy="50%" r="50%"><stop offset="0%" stop-color="rgba(60, 130, 255, 0.2)"></stop><stop offset="100%" stop-color="rgba(60, 130, 255, 0)"></stop></radialGradient></defs><ellipse id="bg-glow-1" cx="150" cy="180" rx="300" ry="150" fill="url(#stack-g1)"></ellipse><ellipse id="bg-glow-2" cx="700" cy="180" rx="300" ry="150" fill="url(#stack-g2)"></ellipse><style>

      @keyframes soft-pulse1 { 0%, 100% { opacity: 0.3; } 50% { opacity: 0.6; } }
      @keyframes soft-pulse2 { 0%, 100% { opacity: 0.2; } 50% { opacity: 0.5; } }
      #bg-glow-1 { animation: soft-pulse1 6s ease-in-out infinite; }
      #bg-glow-2 { animation: soft-pulse2 8s ease-in-out infinite 2s; }
  
</style>
</svg><mask id="satori_om-id-0-0"><rect x="1" y="1" width="0" height="180" fill="#fff" mask="url(#satori_om-id)"/></mask><mask id="satori_om-id-0-0-0"><rect x="1" y="1" width="0" height="180" fill="#fff" mask="url(#satori_om-id)"/></mask><mask id="satori_om-id-0-0-0-0"><rect x="1" y="1" width="0" height="180" fill="#fff" mask="url(#satori_om-id)"/></mask><mask id="satori_om-id-0-0-0-1"><rect x="1" y="1" width="0" height="180" fill="#fff" mask="url(#satori_om-id)"/></mask><mask id="satori_om-id-0-0-1"><rect x="1" y="1" width="0" height="180" fill="#fff" mask="url(#satori_om-id)"/></mask><mask id="satori_om-id-0-0-1-0"><rect x="1" y="1" width="0" height="180" fill="#fff" mask="url(#satori_om-id)"/></mask><mask id="satori_om-id-0-0-1-1"><rect x="1" y="1" width="0" height="180" fill="#fff" mask="url(#satori_om-id)"/></mask><mask id="satori_om-id-0-1"><rect x="1" y="1" width="0" height="180" fill="#fff" mask="url(#satori_om-id)"/></mask><mask id="satori_om-id-0-2"><rect x="1" y="1" width="0" height="180" fill="#fff" mask="url(#satori_om-id)"/></mask><mask id="satori_om-id-1"><rect x="401" y="40" width="59" height="13" fill="#fff" mask="url(#satori_om-id)"/></mask><g mask="url(#satori_om-id)" clip-path="url(#satori_cp-id)"><path fill="rgba(255,255,255,0.4)" d="M404.7 51.1L404.7 51.1Q403.7 51.1 403.0 50.8Q402.3 50.5 401.9 49.9Q401.5 49.4 401.5 48.5L401.5 48.5L403.1 48.5Q403.1 48.9 403.3 49.2Q403.5 49.5 403.9 49.6Q404.2 49.7 404.6 49.7L404.6 49.7Q405.1 49.7 405.4 49.6Q405.7 49.5 405.9 49.2Q406.1 49.0 406.1 48.7L406.1 48.7Q406.1 48.4 405.9 48.3Q405.8 48.1 405.5 47.9Q405.2 47.8 404.7 47.7L404.7 47.7L403.8 47.5Q402.8 47.2 402.2 46.7Q401.7 46.2 401.7 45.3L401.7 45.3Q401.7 44.6 402.1 44.0Q402.5 43.5 403.1 43.2Q403.8 42.9 404.7 42.9L404.7 42.9Q405.6 42.9 406.2 43.2Q406.9 43.5 407.3 44.0Q407.6 44.6 407.6 45.3L407.6 45.3L406.1 45.3Q406.0 44.8 405.6 44.5Q405.3 44.3 404.7 44.3L404.7 44.3Q404.2 44.3 404.0 44.4Q403.7 44.5 403.5 44.7Q403.4 44.9 403.4 45.2L403.4 45.2Q403.4 45.5 403.5 45.7Q403.7 45.9 404.0 46.0Q404.3 46.1 404.6 46.2L404.6 46.2L405.4 46.4Q405.9 46.5 406.3 46.7Q406.7 46.9 407.1 47.2Q407.4 47.4 407.6 47.8Q407.7 48.2 407.7 48.7L407.7 48.7Q407.7 49.4 407.4 50.0Q407.0 50.5 406.3 50.8Q405.6 51.1 404.7 51.1ZM415.1 44.4L412.6 44.4L412.6 43.0L419.1 43.0L419.1 44.4L416.7 44.4L416.7 51L415.1 51L415.1 44.4ZM425.6 51L423.8 51L426.5 43.0L428.7 43.0L431.5 51L429.7 51L429.1 49.1L426.2 49.1L425.6 51ZM426.6 47.9L428.6 47.9L428.4 47.1Q428.2 46.4 427.9 45.5L427.9 45.5Q427.8 44.9 427.6 44.3L427.6 44.3Q427.4 44.9 427.3 45.5L427.3 45.5Q427.1 46.4 426.9 47.1L426.9 47.1L426.6 47.9ZM440.0 51.1L440.0 51.1Q438.9 51.1 438.1 50.6Q437.2 50.1 436.7 49.2Q436.3 48.3 436.3 47.0L436.3 47.0Q436.3 45.7 436.8 44.8Q437.2 43.9 438.1 43.4Q438.9 42.9 440.0 42.9L440.0 42.9Q440.7 42.9 441.2 43.1Q441.8 43.3 442.3 43.6Q442.8 44.0 443.0 44.5Q443.3 45.1 443.4 45.7L443.4 45.7L441.8 45.7Q441.7 45.4 441.6 45.1Q441.4 44.9 441.2 44.7Q440.9 44.5 440.7 44.4Q440.4 44.3 440.0 44.3L440.0 44.3Q439.4 44.3 438.9 44.7Q438.4 45.0 438.2 45.6Q437.9 46.2 437.9 47.0L437.9 47.0Q437.9 47.9 438.2 48.5Q438.5 49.1 438.9 49.4Q439.4 49.7 440.0 49.7L440.0 49.7Q440.3 49.7 440.6 49.6Q440.9 49.5 441.2 49.3Q441.4 49.1 441.6 48.8Q441.7 48.6 441.8 48.3L441.8 48.3L443.4 48.3Q443.4 48.8 443.1 49.3Q442.8 49.8 442.4 50.2Q442.0 50.6 441.3 50.9Q440.7 51.1 440.0 51.1ZM450.3 51L448.6 51L448.6 43.0L450.3 43.0L450.3 45.2L450.2 47.0Q450.3 46.9 450.3 46.9L450.3 46.9Q450.5 46.5 450.8 46.1Q451.1 45.7 451.5 45.3L451.5 45.3L453.4 43.0L455.4 43.0L452.5 46.5L455.5 51L453.6 51L451.3 47.5L450.3 48.7L450.3 51Z "/></g><mask id="satori_om-id-2"><rect x="124" y="69" width="613" height="72" fill="#fff" mask="url(#satori_om-id)"/></mask><mask id="satori_om-id-2-0"><rect x="124" y="69" width="613" height="30" fill="#fff" mask="url(#satori_om-id)"/></mask><defs><clipPath id="satori_bc-id-2-0-0" clip-path="url(#satori_cp-id)"><path x="124" y="69" width="102" height="30" d="M139,69 h72 a15,15 0 0 1 15,15 v0 a15,15 0 0 1 -15,15 h-72 a15,15 0 0 1 -15,-15 v0 a15,15 0 0 1 15,-15"/></clipPath></defs><mask id="satori_om-id-2-0-0"><rect x="125" y="70" width="100" height="28" fill="#fff" mask="url(#satori_om-id)"/><path width="102" height="30" fill="none" stroke="#000" stroke-width="2" d="M128.393,73.393 A15,15 0 0 1 139,69 h72 a15,15 0 0 1 15,15 v0 a15,15 0 0 1 -15,15 h-72 a15,15 0 0 1 -15,-15 v0 A15,15 0 0 1 128.393,73.393"/></mask><path x="124" y="69" width="102" height="30" fill="rgba(255,255,255,0.04)" d="M139,69 h72 a15,15 0 0 1 15,15 v0 a15,15 0 0 1 -15,15 h-72 a15,15 0 0 1 -15,-15 v0 a15,15 0 0 1 15,-15" clip-path="url(#satori_cp-id)" mask="url(#satori_om-id)"/><path width="102" height="30" clip-path="url(#satori_bc-id-2-0-0)" fill="none" stroke="rgba(255,255,255,0.06)" stroke-width="2" d="M128.393,73.393 A15,15 0 0 1 139,69 h72 a15,15 0 0 1 15,15 v0 a15,15 0 0 1 -15,15 h-72 a15,15 0 0 1 -15,-15 v0 A15,15 0 0 1 128.393,73.393"/><g mask="url(#satori_om-id)" clip-path="url(#satori_cp-id)"><path fill="rgba(255,255,255,0.75)" d="M144.6 80.6L141.6 80.6L141.6 79.5L148.8 79.5L148.8 80.6L145.8 80.6L145.8 89L144.6 89L144.6 80.6ZM150.3 91.6L150.3 91.6L150.6 90.6L150.7 90.6Q151.0 90.7 151.3 90.7Q151.6 90.6 151.8 90.4Q152.1 90.1 152.2 89.6L152.2 89.6L152.4 89.0L149.7 81.9L151.0 81.9L152.5 86.1Q152.7 86.8 152.9 87.4L152.9 87.4Q153.0 87.7 153.0 88.0L153.0 88.0Q153.1 87.7 153.2 87.4L153.2 87.4Q153.4 86.8 153.6 86.1L153.6 86.1L155.1 81.9L156.4 81.9L153.2 90.1Q153.0 90.6 152.7 91.0Q152.4 91.4 152.0 91.5Q151.6 91.7 151.1 91.7L151.1 91.7Q150.8 91.7 150.6 91.7Q150.4 91.6 150.3 91.6ZM158.8 91.7L157.7 91.7L157.7 81.9L158.8 81.9L158.8 83.0L158.9 83.0Q159.1 82.8 159.3 82.6Q159.5 82.3 159.9 82.0Q160.3 81.8 161.0 81.8L161.0 81.8Q161.9 81.8 162.6 82.3Q163.2 82.7 163.6 83.5Q164.0 84.3 164.0 85.5L164.0 85.5Q164.0 86.6 163.6 87.4Q163.2 88.3 162.6 88.7Q161.9 89.2 161.0 89.2L161.0 89.2Q160.3 89.2 159.9 88.9Q159.5 88.7 159.3 88.4Q159.1 88.1 158.9 87.9L158.9 87.9L158.8 87.9L158.8 91.7ZM160.8 88.1L160.8 88.1Q161.5 88.1 161.9 87.8Q162.4 87.4 162.6 86.8Q162.8 86.2 162.8 85.5L162.8 85.5Q162.8 84.7 162.6 84.1Q162.4 83.5 161.9 83.2Q161.5 82.8 160.8 82.8L160.8 82.8Q160.2 82.8 159.7 83.2Q159.3 83.5 159.1 84.1Q158.8 84.7 158.8 85.5L158.8 85.5Q158.8 86.2 159.1 86.8Q159.3 87.5 159.7 87.8Q160.2 88.1 160.8 88.1ZM168.6 89.2L168.6 89.2Q167.6 89.2 166.9 88.7Q166.1 88.2 165.7 87.4Q165.3 86.6 165.3 85.5Q165.3 84.4 165.7 83.6Q166.1 82.8 166.8 82.3Q167.5 81.8 168.5 81.8L168.5 81.8Q169.1 81.8 169.6 82.0Q170.2 82.2 170.6 82.6Q171.1 83.0 171.3 83.7Q171.6 84.4 171.6 85.4L171.6 85.4L171.6 85.8L166.5 85.8Q166.5 86.5 166.7 87.0L166.7 87.0Q167.0 87.6 167.5 87.9Q168.0 88.1 168.7 88.1L168.7 88.1Q169.1 88.1 169.4 88.0Q169.8 87.9 170.0 87.7Q170.3 87.4 170.4 87.0L170.4 87.0L171.5 87.3Q171.3 87.9 170.9 88.3Q170.5 88.7 170.0 88.9Q169.4 89.2 168.6 89.2ZM166.5 84.9L166.5 84.9L170.4 84.9Q170.4 84.4 170.2 84.0L170.2 84.0Q170.0 83.4 169.6 83.1Q169.2 82.8 168.5 82.8Q167.9 82.8 167.4 83.1Q167.0 83.5 166.7 84.0L166.7 84.0Q166.5 84.4 166.5 84.9ZM176.4 89.2L176.4 89.2Q175.4 89.2 174.6 88.8Q173.9 88.5 173.5 87.9Q173.0 87.3 173.0 86.5L173.0 86.5L174.2 86.5Q174.3 87.1 174.6 87.4Q174.9 87.7 175.4 87.9Q175.9 88.1 176.4 88.1L176.4 88.1Q177.0 88.1 177.6 87.9Q178.1 87.7 178.4 87.3Q178.7 86.9 178.7 86.4L178.7 86.4Q178.7 85.9 178.4 85.7Q178.2 85.4 177.7 85.2Q177.3 85.0 176.8 84.9L176.8 84.9L175.7 84.5Q174.5 84.2 173.9 83.6Q173.2 83.0 173.2 82.1L173.2 82.1Q173.2 81.3 173.7 80.7Q174.1 80.1 174.8 79.7Q175.6 79.4 176.5 79.4L176.5 79.4Q177.4 79.4 178.1 79.7Q178.9 80.1 179.3 80.6Q179.7 81.2 179.7 81.9L179.7 81.9L178.5 81.9Q178.5 81.2 177.9 80.9Q177.3 80.5 176.5 80.5L176.5 80.5Q175.8 80.5 175.4 80.7Q174.9 80.9 174.7 81.2Q174.4 81.6 174.4 82.0L174.4 82.0Q174.4 82.5 174.7 82.8Q175.0 83.1 175.5 83.3Q175.9 83.5 176.2 83.5L176.2 83.5L177.2 83.8Q177.5 83.9 178.0 84.1Q178.5 84.3 178.9 84.6Q179.3 84.9 179.6 85.3Q179.8 85.8 179.8 86.4L179.8 86.4Q179.8 87.2 179.4 87.8Q179.0 88.4 178.3 88.8Q177.5 89.2 176.4 89.2ZM184.5 89.2L184.5 89.2Q183.5 89.2 182.8 88.7Q182.1 88.2 181.6 87.4Q181.2 86.6 181.2 85.5L181.2 85.5Q181.2 84.4 181.6 83.6Q182.1 82.7 182.8 82.3Q183.5 81.8 184.5 81.8L184.5 81.8Q185.0 81.8 185.4 81.9Q185.9 82.1 186.3 82.3Q186.7 82.6 186.9 82.9Q187.2 83.3 187.3 83.8L187.3 83.8L186.2 84.1Q186.2 83.8 186.0 83.6Q185.9 83.4 185.6 83.2Q185.4 83.0 185.1 82.9Q184.8 82.8 184.5 82.8L184.5 82.8Q183.8 82.8 183.3 83.2Q182.8 83.6 182.6 84.2Q182.4 84.8 182.4 85.5L182.4 85.5Q182.4 86.2 182.6 86.8Q182.8 87.4 183.3 87.8Q183.8 88.1 184.5 88.1L184.5 88.1Q184.8 88.1 185.1 88.0Q185.4 87.9 185.7 87.8Q185.9 87.6 186.0 87.3Q186.2 87.1 186.3 86.8L186.3 86.8L187.4 87.1Q187.2 87.6 187.0 88.0Q186.7 88.4 186.3 88.6Q185.9 88.9 185.5 89.0Q185.0 89.2 184.5 89.2ZM190.1 89L189.0 89L189.0 81.9L190.1 81.9L190.1 83.0L190.2 83.0Q190.4 82.5 190.9 82.1Q191.4 81.8 192.0 81.8L192.0 81.8Q192.2 81.8 192.3 81.8Q192.5 81.8 192.6 81.8L192.6 81.8L192.6 83.0Q192.6 83.0 192.4 82.9Q192.1 82.9 191.9 82.9L191.9 82.9Q191.4 82.9 191.0 83.1Q190.6 83.3 190.4 83.7Q190.1 84.1 190.1 84.6L190.1 84.6L190.1 89ZM195.0 89L193.9 89L193.9 81.9L195.0 81.9L195.0 89ZM194.5 80.7L194.5 80.7Q194.2 80.7 193.9 80.5Q193.7 80.3 193.7 80.0L193.7 80.0Q193.7 79.7 193.9 79.4Q194.2 79.2 194.5 79.2L194.5 79.2Q194.8 79.2 195.0 79.4Q195.3 79.7 195.3 80.0L195.3 80.0Q195.3 80.3 195.0 80.5Q194.8 80.7 194.5 80.7ZM198.2 91.7L197.0 91.7L197.0 81.9L198.2 81.9L198.2 83.0L198.3 83.0Q198.4 82.8 198.6 82.6Q198.8 82.3 199.2 82.0Q199.6 81.8 200.3 81.8L200.3 81.8Q201.2 81.8 201.9 82.3Q202.6 82.7 203.0 83.5Q203.3 84.3 203.3 85.5L203.3 85.5Q203.3 86.6 203.0 87.4Q202.6 88.3 201.9 88.7Q201.2 89.2 200.3 89.2L200.3 89.2Q199.7 89.2 199.3 88.9Q198.8 88.7 198.6 88.4Q198.4 88.1 198.3 87.9L198.3 87.9L198.2 87.9L198.2 91.7ZM200.2 88.1L200.2 88.1Q200.8 88.1 201.3 87.8Q201.7 87.4 202.0 86.8Q202.2 86.2 202.2 85.5L202.2 85.5Q202.2 84.7 202.0 84.1Q201.7 83.5 201.3 83.2Q200.8 82.8 200.2 82.8L200.2 82.8Q199.5 82.8 199.1 83.2Q198.6 83.5 198.4 84.1Q198.2 84.7 198.2 85.5L198.2 85.5Q198.2 86.2 198.4 86.8Q198.6 87.5 199.1 87.8Q199.5 88.1 200.2 88.1ZM206.3 81.9L207.8 81.9L207.8 82.9L206.3 82.9L206.3 87.2Q206.3 87.6 206.5 87.9Q206.7 88.1 207.2 88.1L207.2 88.1Q207.3 88.1 207.5 88.0Q207.6 88.0 207.8 88.0L207.8 88.0L208.0 89.0Q207.8 89.0 207.6 89.1Q207.4 89.1 207.1 89.1L207.1 89.1Q206.2 89.1 205.7 88.6Q205.2 88.1 205.2 87.2L205.2 87.2L205.2 82.9L204.1 82.9L204.1 81.9L205.2 81.9L205.2 80.2L206.3 80.2L206.3 81.9Z "/></g><defs><clipPath id="satori_bc-id-2-0-1" clip-path="url(#satori_cp-id)"><path x="236" y="69" width="69" height="30" d="M251,69 h39 a15,15 0 0 1 15,15 v0 a15,15 0 0 1 -15,15 h-39 a15,15 0 0 1 -15,-15 v0 a15,15 0 0 1 15,-15"/></clipPath></defs><mask id="satori_om-id-2-0-1"><rect x="237" y="70" width="67" height="28" fill="#fff" mask="url(#satori_om-id)"/><path width="69" height="30" fill="none" stroke="#000" stroke-width="2" d="M240.393,73.393 A15,15 0 0 1 251,69 h39 a15,15 0 0 1 15,15 v0 a15,15 0 0 1 -15,15 h-39 a15,15 0 0 1 -15,-15 v0 A15,15 0 0 1 240.393,73.393"/></mask><path x="236" y="69" width="69" height="30" fill="rgba(255,255,255,0.04)" d="M251,69 h39 a15,15 0 0 1 15,15 v0 a15,15 0 0 1 -15,15 h-39 a15,15 0 0 1 -15,-15 v0 a15,15 0 0 1 15,-15" clip-path="url(#satori_cp-id)" mask="url(#satori_om-id)"/><path width="69" height="30" clip-path="url(#satori_bc-id-2-0-1)" fill="none" stroke="rgba(255,255,255,0.06)" stroke-width="2" d="M240.393,73.393 A15,15 0 0 1 251,69 h39 a15,15 0 0 1 15,15 v0 a15,15 0 0 1 -15,15 h-39 a15,15 0 0 1 -15,-15 v0 A15,15 0 0 1 240.393,73.393"/><g mask="url(#satori_om-id)" clip-path="url(#satori_cp-id)"><path fill="rgba(255,255,255,0.75)" d="M255.3 89L254.1 89L254.1 79.5L257.4 79.5Q258.5 79.5 259.2 79.9Q259.9 80.3 260.3 81.0Q260.6 81.6 260.6 82.5Q260.6 83.3 260.3 84.0Q259.9 84.6 259.2 85.0L259.2 85.0Q259.0 85.1 258.9 85.1L258.9 85.1L261.0 89L259.6 89L257.6 85.3Q257.5 85.3 257.4 85.3L257.4 85.3L255.3 85.3L255.3 89ZM255.3 80.6L255.3 84.3L257.3 84.3Q258.1 84.3 258.5 84.0Q259.0 83.8 259.2 83.4Q259.4 83.0 259.4 82.5L259.4 82.5Q259.4 81.9 259.2 81.5Q259.0 81.1 258.5 80.8Q258.1 80.6 257.3 80.6L257.3 80.6L255.3 80.6ZM265.4 89.2L265.4 89.2Q264.3 89.2 263.6 88.7Q262.8 88.2 262.4 87.4Q262.0 86.6 262.0 85.5Q262.0 84.4 262.4 83.6Q262.8 82.8 263.5 82.3Q264.3 81.8 265.2 81.8L265.2 81.8Q265.8 81.8 266.3 82.0Q266.9 82.2 267.3 82.6Q267.8 83.0 268.0 83.7Q268.3 84.4 268.3 85.4L268.3 85.4L268.3 85.8L263.2 85.8Q263.2 86.5 263.5 87.0L263.5 87.0Q263.7 87.6 264.2 87.9Q264.7 88.1 265.4 88.1L265.4 88.1Q265.8 88.1 266.1 88.0Q266.5 87.9 266.7 87.7Q267.0 87.4 267.1 87.0L267.1 87.0L268.2 87.3Q268.0 87.9 267.6 88.3Q267.2 88.7 266.7 88.9Q266.1 89.2 265.4 89.2ZM263.2 84.9L263.2 84.9L267.1 84.9Q267.1 84.4 266.9 84.0L266.9 84.0Q266.7 83.4 266.3 83.1Q265.9 82.8 265.2 82.8Q264.6 82.8 264.1 83.1Q263.7 83.5 263.4 84.0L263.4 84.0Q263.2 84.4 263.2 84.9ZM271.9 89.2L271.9 89.2Q271.3 89.2 270.7 88.9Q270.2 88.7 269.8 88.2Q269.5 87.7 269.5 87.0L269.5 87.0Q269.5 86.4 269.8 86.0Q270.0 85.6 270.4 85.4Q270.8 85.2 271.3 85.1Q271.8 85.0 272.3 84.9L272.3 84.9Q272.9 84.8 273.3 84.8Q273.7 84.7 273.9 84.6Q274.1 84.5 274.1 84.2L274.1 84.2L274.1 84.2Q274.1 83.8 273.9 83.5Q273.8 83.1 273.4 83.0Q273.1 82.8 272.6 82.8L272.6 82.8Q272.1 82.8 271.7 83.0Q271.4 83.1 271.2 83.4Q270.9 83.6 270.8 83.9L270.8 83.9L269.7 83.5Q270.0 82.8 270.5 82.5Q270.9 82.1 271.5 82.0Q272.0 81.8 272.6 81.8L272.6 81.8Q272.9 81.8 273.4 81.9Q273.8 82.0 274.3 82.2Q274.7 82.5 275.0 83.0Q275.2 83.5 275.2 84.3L275.2 84.3L275.2 89L274.1 89L274.1 88.0L274.0 88.0Q273.9 88.3 273.7 88.5Q273.4 88.8 273.0 89.0Q272.5 89.2 271.9 89.2ZM272.1 88.2L272.1 88.2Q272.8 88.2 273.2 87.9Q273.6 87.7 273.9 87.3Q274.1 86.9 274.1 86.4L274.1 86.4L274.1 85.5Q274.0 85.5 273.8 85.6Q273.6 85.7 273.3 85.7Q273.0 85.8 272.7 85.8Q272.4 85.8 272.2 85.9L272.2 85.9Q271.8 85.9 271.5 86.0Q271.1 86.2 270.9 86.4Q270.7 86.6 270.7 87.0L270.7 87.0Q270.7 87.4 270.9 87.7Q271.0 87.9 271.4 88.0Q271.7 88.2 272.1 88.2ZM280.1 89.2L280.1 89.2Q279.2 89.2 278.4 88.7Q277.7 88.2 277.3 87.4Q276.9 86.6 276.9 85.5L276.9 85.5Q276.9 84.4 277.3 83.6Q277.7 82.7 278.4 82.3Q279.2 81.8 280.1 81.8L280.1 81.8Q280.7 81.8 281.1 81.9Q281.6 82.1 281.9 82.3Q282.3 82.6 282.6 82.9Q282.9 83.3 283.0 83.8L283.0 83.8L281.9 84.1Q281.8 83.8 281.7 83.6Q281.5 83.4 281.3 83.2Q281.1 83.0 280.8 82.9Q280.5 82.8 280.1 82.8L280.1 82.8Q279.4 82.8 279.0 83.2Q278.5 83.6 278.3 84.2Q278.1 84.8 278.1 85.5L278.1 85.5Q278.1 86.2 278.3 86.8Q278.5 87.4 279.0 87.8Q279.4 88.1 280.1 88.1L280.1 88.1Q280.5 88.1 280.8 88.0Q281.1 87.9 281.3 87.8Q281.6 87.6 281.7 87.3Q281.9 87.1 281.9 86.8L281.9 86.8L283.0 87.1Q282.9 87.6 282.6 88.0Q282.3 88.4 282.0 88.6Q281.6 88.9 281.1 89.0Q280.7 89.2 280.1 89.2ZM286.0 81.9L287.5 81.9L287.5 82.9L286.0 82.9L286.0 87.2Q286.0 87.6 286.2 87.9Q286.4 88.1 286.8 88.1L286.8 88.1Q287.0 88.1 287.1 88.0Q287.3 88.0 287.4 88.0L287.4 88.0L287.7 89.0Q287.5 89.0 287.3 89.1Q287.0 89.1 286.8 89.1L286.8 89.1Q285.9 89.1 285.4 88.6Q284.9 88.1 284.9 87.2L284.9 87.2L284.9 82.9L283.8 82.9L283.8 81.9L284.9 81.9L284.9 80.2L286.0 80.2L286.0 81.9Z "/></g><defs><clipPath id="satori_bc-id-2-0-2" clip-path="url(#satori_cp-id)"><path x="315" y="69" width="81" height="30" d="M330,69 h51 a15,15 0 0 1 15,15 v0 a15,15 0 0 1 -15,15 h-51 a15,15 0 0 1 -15,-15 v0 a15,15 0 0 1 15,-15"/></clipPath></defs><mask id="satori_om-id-2-0-2"><rect x="316" y="70" width="79" height="28" fill="#fff" mask="url(#satori_om-id)"/><path width="81" height="30" fill="none" stroke="#000" stroke-width="2" d="M319.39300000000003,73.393 A15,15 0 0 1 330,69 h51 a15,15 0 0 1 15,15 v0 a15,15 0 0 1 -15,15 h-51 a15,15 0 0 1 -15,-15 v0 A15,15 0 0 1 319.39300000000003,73.393"/></mask><path x="315" y="69" width="81" height="30" fill="rgba(255,255,255,0.04)" d="M330,69 h51 a15,15 0 0 1 15,15 v0 a15,15 0 0 1 -15,15 h-51 a15,15 0 0 1 -15,-15 v0 a15,15 0 0 1 15,-15" clip-path="url(#satori_cp-id)" mask="url(#satori_om-id)"/><path width="81" height="30" clip-path="url(#satori_bc-id-2-0-2)" fill="none" stroke="rgba(255,255,255,0.06)" stroke-width="2" d="M319.39300000000003,73.393 A15,15 0 0 1 330,69 h51 a15,15 0 0 1 15,15 v0 a15,15 0 0 1 -15,15 h-51 a15,15 0 0 1 -15,-15 v0 A15,15 0 0 1 319.39300000000003,73.393"/><g mask="url(#satori_om-id)" clip-path="url(#satori_cp-id)"><path fill="rgba(255,255,255,0.75)" d="M334.4 89L333.1 89L333.1 79.5L334.6 79.5L338.4 85.6Q338.6 85.8 338.8 86.2Q339.0 86.6 339.2 87.0L339.2 87.0Q339.4 87.3 339.5 87.6L339.5 87.6Q339.5 87.3 339.5 87.0L339.5 87.0Q339.5 86.5 339.5 86.1Q339.4 85.6 339.4 85.3L339.4 85.3L339.4 79.5L340.7 79.5L340.7 89L339.2 89L335.8 83.6Q335.6 83.2 335.3 82.8Q335.1 82.4 334.8 81.9L334.8 81.9Q334.6 81.5 334.3 81.0L334.3 81.0Q334.3 81.5 334.3 81.9L334.3 81.9Q334.3 82.5 334.3 82.9Q334.4 83.4 334.4 83.6L334.4 83.6L334.4 89ZM345.7 89.2L345.7 89.2Q344.7 89.2 344.0 88.7Q343.3 88.2 342.9 87.4Q342.5 86.6 342.5 85.5L342.5 85.5Q342.5 84.4 342.9 83.6Q343.3 82.7 344.0 82.3Q344.7 81.8 345.7 81.8L345.7 81.8Q346.7 81.8 347.4 82.3Q348.1 82.7 348.5 83.6Q348.9 84.4 348.9 85.5L348.9 85.5Q348.9 86.6 348.5 87.4Q348.1 88.2 347.4 88.7Q346.7 89.2 345.7 89.2ZM345.7 88.1L345.7 88.1Q346.4 88.1 346.9 87.8Q347.3 87.4 347.6 86.8Q347.8 86.2 347.8 85.5L347.8 85.5Q347.8 84.8 347.6 84.2Q347.3 83.6 346.9 83.2Q346.4 82.8 345.7 82.8L345.7 82.8Q345.0 82.8 344.5 83.2Q344.1 83.6 343.8 84.2Q343.6 84.8 343.6 85.5L343.6 85.5Q343.6 86.2 343.8 86.8Q344.1 87.4 344.5 87.8Q345.0 88.1 345.7 88.1ZM353.3 89.2L353.3 89.2Q352.4 89.2 351.7 88.7Q351.0 88.3 350.6 87.4Q350.2 86.6 350.2 85.5L350.2 85.5Q350.2 84.3 350.6 83.5Q351.0 82.7 351.7 82.3Q352.4 81.8 353.3 81.8L353.3 81.8Q354.0 81.8 354.4 82.0Q354.8 82.3 355.0 82.6Q355.2 82.8 355.3 83.0L355.3 83.0L355.4 83.0L355.4 79.5L356.5 79.5L356.5 89L355.4 89L355.4 87.9L355.3 87.9Q355.2 88.1 355.0 88.4Q354.8 88.7 354.3 88.9Q353.9 89.2 353.3 89.2ZM353.4 88.1L353.4 88.1Q354.1 88.1 354.5 87.8Q355.0 87.5 355.2 86.8Q355.4 86.2 355.4 85.5L355.4 85.5Q355.4 84.7 355.2 84.1Q355.0 83.5 354.5 83.2Q354.1 82.8 353.4 82.8L353.4 82.8Q352.8 82.8 352.3 83.2Q351.9 83.5 351.6 84.1Q351.4 84.7 351.4 85.5L351.4 85.5Q351.4 86.2 351.6 86.8Q351.9 87.4 352.3 87.8Q352.8 88.1 353.4 88.1ZM361.5 89.2L361.5 89.2Q360.5 89.2 359.8 88.7Q359.0 88.2 358.6 87.4Q358.2 86.6 358.2 85.5Q358.2 84.4 358.6 83.6Q359.0 82.8 359.7 82.3Q360.4 81.8 361.4 81.8L361.4 81.8Q362.0 81.8 362.5 82.0Q363.1 82.2 363.5 82.6Q364.0 83.0 364.2 83.7Q364.5 84.4 364.5 85.4L364.5 85.4L364.5 85.8L359.4 85.8Q359.4 86.5 359.6 87.0L359.6 87.0Q359.9 87.6 360.4 87.9Q360.9 88.1 361.5 88.1L361.5 88.1Q362.0 88.1 362.3 88.0Q362.6 87.9 362.9 87.7Q363.1 87.4 363.3 87.0L363.3 87.0L364.4 87.3Q364.2 87.9 363.8 88.3Q363.4 88.7 362.8 88.9Q362.3 89.2 361.5 89.2ZM359.4 84.9L359.4 84.9L363.3 84.9Q363.3 84.4 363.1 84.0L363.1 84.0Q362.9 83.4 362.5 83.1Q362.0 82.8 361.4 82.8Q360.8 82.8 360.3 83.1Q359.8 83.5 359.6 84.0L359.6 84.0Q359.4 84.4 359.4 84.9ZM367.0 89.1L367.0 89.1Q366.6 89.1 366.4 88.8Q366.1 88.6 366.1 88.2L366.1 88.2Q366.1 87.9 366.4 87.6Q366.6 87.4 367.0 87.4L367.0 87.4Q367.4 87.4 367.6 87.6Q367.9 87.9 367.9 88.2L367.9 88.2Q367.9 88.6 367.6 88.8Q367.4 89.1 367.0 89.1ZM369.9 89.5L369.9 81.9L371.0 81.9L371.0 89.5Q371.0 90.2 370.8 90.7Q370.6 91.1 370.1 91.4Q369.6 91.7 368.9 91.7L368.9 91.7L368.7 91.7L368.7 90.6L368.9 90.6Q369.4 90.6 369.6 90.3Q369.9 90.0 369.9 89.5L369.9 89.5ZM370.4 80.7L370.4 80.7Q370.1 80.7 369.9 80.5Q369.7 80.3 369.7 80.0L369.7 80.0Q369.7 79.7 369.9 79.4Q370.1 79.2 370.4 79.2L370.4 79.2Q370.8 79.2 371.0 79.4Q371.2 79.7 371.2 80.0L371.2 80.0Q371.2 80.3 371.0 80.5Q370.8 80.7 370.4 80.7ZM375.4 89.2L375.4 89.2Q374.7 89.2 374.1 88.9Q373.6 88.7 373.2 88.3Q372.8 87.9 372.7 87.3L372.7 87.3L373.8 87.0Q373.9 87.6 374.4 87.9Q374.8 88.1 375.4 88.1L375.4 88.1Q376.2 88.1 376.6 87.8Q377.0 87.5 377.0 87.1L377.0 87.1Q377.0 86.7 376.8 86.5Q376.5 86.2 376.0 86.1L376.0 86.1L374.8 85.8Q373.9 85.6 373.4 85.1Q372.9 84.6 372.9 83.9L372.9 83.9Q372.9 83.3 373.3 82.8Q373.6 82.3 374.2 82.1Q374.8 81.8 375.6 81.8L375.6 81.8Q376.3 81.8 376.8 82.0Q377.3 82.3 377.6 82.6Q377.9 83.0 378.1 83.5L378.1 83.5L377.1 83.8Q376.9 83.4 376.6 83.1Q376.2 82.8 375.6 82.8L375.6 82.8Q374.9 82.8 374.5 83.1Q374.1 83.4 374.1 83.8L374.1 83.8Q374.1 84.2 374.4 84.4Q374.6 84.7 375.3 84.8L375.3 84.8L376.3 85.1Q377.3 85.3 377.8 85.8Q378.2 86.3 378.2 87.0L378.2 87.0Q378.2 87.6 377.9 88.1Q377.5 88.6 376.9 88.9Q376.3 89.2 375.4 89.2Z "/></g><defs><clipPath id="satori_bc-id-2-0-3" clip-path="url(#satori_cp-id)"><path x="406" y="69" width="62" height="30" d="M421,69 h32 a15,15 0 0 1 15,15 v0 a15,15 0 0 1 -15,15 h-32 a15,15 0 0 1 -15,-15 v0 a15,15 0 0 1 15,-15"/></clipPath></defs><mask id="satori_om-id-2-0-3"><rect x="407" y="70" width="60" height="28" fill="#fff" mask="url(#satori_om-id)"/><path width="62" height="30" fill="none" stroke="#000" stroke-width="2" d="M410.39300000000003,73.393 A15,15 0 0 1 421,69 h32 a15,15 0 0 1 15,15 v0 a15,15 0 0 1 -15,15 h-32 a15,15 0 0 1 -15,-15 v0 A15,15 0 0 1 410.39300000000003,73.393"/></mask><path x="406" y="69" width="62" height="30" fill="rgba(255,255,255,0.04)" d="M421,69 h32 a15,15 0 0 1 15,15 v0 a15,15 0 0 1 -15,15 h-32 a15,15 0 0 1 -15,-15 v0 a15,15 0 0 1 15,-15" clip-path="url(#satori_cp-id)" mask="url(#satori_om-id)"/><path width="62" height="30" clip-path="url(#satori_bc-id-2-0-3)" fill="none" stroke="rgba(255,255,255,0.06)" stroke-width="2" d="M410.39300000000003,73.393 A15,15 0 0 1 421,69 h32 a15,15 0 0 1 15,15 v0 a15,15 0 0 1 -15,15 h-32 a15,15 0 0 1 -15,-15 v0 A15,15 0 0 1 410.39300000000003,73.393"/><g mask="url(#satori_om-id)" clip-path="url(#satori_cp-id)"><path fill="rgba(255,255,255,0.75)" d="M425.3 89L424.1 89L424.1 79.5L427.4 79.5Q428.5 79.5 429.2 79.9Q429.9 80.3 430.3 81.0Q430.6 81.6 430.6 82.5Q430.6 83.3 430.3 84.0Q429.9 84.6 429.2 85.0L429.2 85.0Q429.0 85.1 428.9 85.1L428.9 85.1L431.0 89L429.6 89L427.6 85.3Q427.5 85.3 427.4 85.3L427.4 85.3L425.3 85.3L425.3 89ZM425.3 80.6L425.3 84.3L427.3 84.3Q428.1 84.3 428.5 84.0Q429.0 83.8 429.2 83.4Q429.4 83.0 429.4 82.5L429.4 82.5Q429.4 81.9 429.2 81.5Q429.0 81.1 428.5 80.8Q428.1 80.6 427.3 80.6L427.3 80.6L425.3 80.6ZM434.8 89.1L434.8 89.1Q434.1 89.1 433.5 88.8Q433.0 88.5 432.7 87.9Q432.4 87.3 432.4 86.4L432.4 86.4L432.4 81.9L433.5 81.9L433.5 86.3Q433.5 87.1 433.9 87.6Q434.4 88.1 435.1 88.1L435.1 88.1Q435.6 88.1 436.0 87.8Q436.4 87.6 436.7 87.2Q436.9 86.8 436.9 86.2L436.9 86.2L436.9 81.9L438.1 81.9L438.1 89L436.9 89L436.9 87.7Q436.6 88.4 436.2 88.7L436.2 88.7Q435.6 89.1 434.8 89.1ZM442.5 89.2L442.5 89.2Q441.7 89.2 441.2 88.9Q440.6 88.7 440.2 88.3Q439.9 87.9 439.7 87.3L439.7 87.3L440.8 87.0Q441.0 87.6 441.4 87.9Q441.8 88.1 442.5 88.1L442.5 88.1Q443.2 88.1 443.6 87.8Q444.1 87.5 444.1 87.1L444.1 87.1Q444.1 86.7 443.8 86.5Q443.6 86.2 443.0 86.1L443.0 86.1L441.9 85.8Q440.9 85.6 440.4 85.1Q440.0 84.6 440.0 83.9L440.0 83.9Q440.0 83.3 440.3 82.8Q440.6 82.3 441.2 82.1Q441.8 81.8 442.6 81.8L442.6 81.8Q443.3 81.8 443.8 82.0Q444.3 82.3 444.7 82.6Q445.0 83.0 445.1 83.5L445.1 83.5L444.1 83.8Q444.0 83.4 443.6 83.1Q443.3 82.8 442.6 82.8L442.6 82.8Q442.0 82.8 441.5 83.1Q441.1 83.4 441.1 83.8L441.1 83.8Q441.1 84.2 441.4 84.4Q441.7 84.7 442.3 84.8L442.3 84.8L443.4 85.1Q444.3 85.3 444.8 85.8Q445.3 86.3 445.3 87.0L445.3 87.0Q445.3 87.6 444.9 88.1Q444.6 88.6 443.9 88.9Q443.3 89.2 442.5 89.2ZM448.3 81.9L449.7 81.9L449.7 82.9L448.3 82.9L448.3 87.2Q448.3 87.6 448.4 87.9Q448.6 88.1 449.1 88.1L449.1 88.1Q449.2 88.1 449.4 88.0Q449.5 88.0 449.7 88.0L449.7 88.0L449.9 89.0Q449.7 89.0 449.5 89.1Q449.3 89.1 449.1 89.1L449.1 89.1Q448.1 89.1 447.6 88.6Q447.1 88.1 447.1 87.2L447.1 87.2L447.1 82.9L446.0 82.9L446.0 81.9L447.1 81.9L447.1 80.2L448.3 80.2L448.3 81.9Z "/></g><defs><clipPath id="satori_bc-id-2-0-4" clip-path="url(#satori_cp-id)"><path x="478" y="69" width="52" height="30" d="M493,69 h22 a15,15 0 0 1 15,15 v0 a15,15 0 0 1 -15,15 h-22 a15,15 0 0 1 -15,-15 v0 a15,15 0 0 1 15,-15"/></clipPath></defs><mask id="satori_om-id-2-0-4"><rect x="479" y="70" width="50" height="28" fill="#fff" mask="url(#satori_om-id)"/><path width="52" height="30" fill="none" stroke="#000" stroke-width="2" d="M482.39300000000003,73.393 A15,15 0 0 1 493,69 h22 a15,15 0 0 1 15,15 v0 a15,15 0 0 1 -15,15 h-22 a15,15 0 0 1 -15,-15 v0 A15,15 0 0 1 482.39300000000003,73.393"/></mask><path x="478" y="69" width="52" height="30" fill="rgba(255,255,255,0.04)" d="M493,69 h22 a15,15 0 0 1 15,15 v0 a15,15 0 0 1 -15,15 h-22 a15,15 0 0 1 -15,-15 v0 a15,15 0 0 1 15,-15" clip-path="url(#satori_cp-id)" mask="url(#satori_om-id)"/><path width="52" height="30" clip-path="url(#satori_bc-id-2-0-4)" fill="none" stroke="rgba(255,255,255,0.06)" stroke-width="2" d="M482.39300000000003,73.393 A15,15 0 0 1 493,69 h22 a15,15 0 0 1 15,15 v0 a15,15 0 0 1 -15,15 h-22 a15,15 0 0 1 -15,-15 v0 A15,15 0 0 1 482.39300000000003,73.393"/><g mask="url(#satori_om-id)" clip-path="url(#satori_cp-id)"><path fill="rgba(255,255,255,0.75)" d="M500.0 89.1L500.0 89.1Q498.7 89.1 497.8 88.5Q496.8 87.9 496.3 86.9Q495.8 85.8 495.8 84.3L495.8 84.3Q495.8 82.8 496.3 81.7Q496.8 80.6 497.8 80.0Q498.7 79.4 499.9 79.4L499.9 79.4Q500.7 79.4 501.3 79.6Q502.0 79.9 502.5 80.3Q503.0 80.7 503.4 81.3Q503.7 81.8 503.8 82.5L503.8 82.5L502.6 82.5Q502.4 82.0 502.2 81.7Q501.9 81.3 501.6 81.1Q501.3 80.8 500.9 80.7Q500.4 80.5 499.9 80.5L499.9 80.5Q499.1 80.5 498.4 81.0Q497.7 81.4 497.3 82.2Q496.9 83.1 496.9 84.3L496.9 84.3Q496.9 85.5 497.4 86.3Q497.8 87.1 498.4 87.6Q499.1 88.0 500.0 88.0L500.0 88.0Q500.8 88.0 501.4 87.7Q502.0 87.3 502.4 86.7L502.4 86.7Q502.7 86.1 502.7 85.3L502.7 85.3L500.3 85.3L500.3 84.2L503.9 84.2L503.9 85.3Q503.9 86.5 503.4 87.3Q502.9 88.2 502.0 88.7Q501.1 89.1 500.0 89.1ZM508.6 89.2L508.6 89.2Q507.6 89.2 506.9 88.7Q506.2 88.2 505.8 87.4Q505.4 86.6 505.4 85.5L505.4 85.5Q505.4 84.4 505.8 83.6Q506.2 82.7 506.9 82.3Q507.6 81.8 508.6 81.8L508.6 81.8Q509.6 81.8 510.3 82.3Q511.0 82.7 511.4 83.6Q511.8 84.4 511.8 85.5L511.8 85.5Q511.8 86.6 511.4 87.4Q511.0 88.2 510.3 88.7Q509.6 89.2 508.6 89.2ZM508.6 88.1L508.6 88.1Q509.3 88.1 509.8 87.8Q510.2 87.4 510.5 86.8Q510.7 86.2 510.7 85.5L510.7 85.5Q510.7 84.8 510.5 84.2Q510.2 83.6 509.8 83.2Q509.3 82.8 508.6 82.8L508.6 82.8Q507.9 82.8 507.4 83.2Q507.0 83.6 506.7 84.2Q506.5 84.8 506.5 85.5L506.5 85.5Q506.5 86.2 506.7 86.8Q507.0 87.4 507.4 87.8Q507.9 88.1 508.6 88.1Z "/></g><defs><clipPath id="satori_bc-id-2-0-5" clip-path="url(#satori_cp-id)"><path x="540" y="69" width="108" height="30" d="M555,69 h78 a15,15 0 0 1 15,15 v0 a15,15 0 0 1 -15,15 h-78 a15,15 0 0 1 -15,-15 v0 a15,15 0 0 1 15,-15"/></clipPath></defs><mask id="satori_om-id-2-0-5"><rect x="541" y="70" width="106" height="28" fill="#fff" mask="url(#satori_om-id)"/><path width="108" height="30" fill="none" stroke="#000" stroke-width="2" d="M544.393,73.393 A15,15 0 0 1 555,69 h78 a15,15 0 0 1 15,15 v0 a15,15 0 0 1 -15,15 h-78 a15,15 0 0 1 -15,-15 v0 A15,15 0 0 1 544.393,73.393"/></mask><path x="540" y="69" width="108" height="30" fill="rgba(255,255,255,0.04)" d="M555,69 h78 a15,15 0 0 1 15,15 v0 a15,15 0 0 1 -15,15 h-78 a15,15 0 0 1 -15,-15 v0 a15,15 0 0 1 15,-15" clip-path="url(#satori_cp-id)" mask="url(#satori_om-id)"/><path width="108" height="30" clip-path="url(#satori_bc-id-2-0-5)" fill="none" stroke="rgba(255,255,255,0.06)" stroke-width="2" d="M544.393,73.393 A15,15 0 0 1 555,69 h78 a15,15 0 0 1 15,15 v0 a15,15 0 0 1 -15,15 h-78 a15,15 0 0 1 -15,-15 v0 A15,15 0 0 1 544.393,73.393"/><g mask="url(#satori_om-id)" clip-path="url(#satori_cp-id)"><path fill="rgba(255,255,255,0.75)" d="M559.3 89L558.1 89L558.1 79.5L561.4 79.5Q562.5 79.5 563.2 79.9Q563.9 80.3 564.3 81.0Q564.6 81.7 564.6 82.6Q564.6 83.4 564.3 84.1Q563.9 84.8 563.2 85.2Q562.5 85.6 561.4 85.6L561.4 85.6L559.3 85.6L559.3 89ZM559.3 80.6L559.3 84.5L561.3 84.5Q562.1 84.5 562.5 84.3Q563.0 84.0 563.2 83.6Q563.4 83.1 563.4 82.6Q563.4 82.0 563.2 81.6Q563.0 81.1 562.5 80.9Q562.1 80.6 561.3 80.6L561.3 80.6L559.3 80.6ZM569.2 89.2L569.2 89.2Q568.2 89.2 567.5 88.7Q566.8 88.2 566.4 87.4Q566.0 86.6 566.0 85.5L566.0 85.5Q566.0 84.4 566.4 83.6Q566.8 82.7 567.5 82.3Q568.2 81.8 569.2 81.8L569.2 81.8Q570.2 81.8 570.9 82.3Q571.6 82.7 572.0 83.6Q572.4 84.4 572.4 85.5L572.4 85.5Q572.4 86.6 572.0 87.4Q571.6 88.2 570.9 88.7Q570.2 89.2 569.2 89.2ZM569.2 88.1L569.2 88.1Q569.9 88.1 570.4 87.8Q570.8 87.4 571.1 86.8Q571.3 86.2 571.3 85.5L571.3 85.5Q571.3 84.8 571.1 84.2Q570.8 83.6 570.4 83.2Q569.9 82.8 569.2 82.8L569.2 82.8Q568.5 82.8 568.0 83.2Q567.6 83.6 567.3 84.2Q567.1 84.8 567.1 85.5L567.1 85.5Q567.1 86.2 567.3 86.8Q567.6 87.4 568.0 87.8Q568.5 88.1 569.2 88.1ZM576.5 89.2L576.5 89.2Q575.8 89.2 575.2 88.9Q574.6 88.7 574.3 88.3Q573.9 87.9 573.8 87.3L573.8 87.3L574.9 87.0Q575.0 87.6 575.4 87.9Q575.9 88.1 576.5 88.1L576.5 88.1Q577.2 88.1 577.7 87.8Q578.1 87.5 578.1 87.1L578.1 87.1Q578.1 86.7 577.9 86.5Q577.6 86.2 577.1 86.1L577.1 86.1L575.9 85.8Q574.9 85.6 574.5 85.1Q574.0 84.6 574.0 83.9L574.0 83.9Q574.0 83.3 574.3 82.8Q574.7 82.3 575.3 82.1Q575.9 81.8 576.6 81.8L576.6 81.8Q577.4 81.8 577.9 82.0Q578.4 82.3 578.7 82.6Q579.0 83.0 579.2 83.5L579.2 83.5L578.1 83.8Q578.0 83.4 577.7 83.1Q577.3 82.8 576.6 82.8L576.6 82.8Q576.0 82.8 575.6 83.1Q575.2 83.4 575.2 83.8L575.2 83.8Q575.2 84.2 575.4 84.4Q575.7 84.7 576.3 84.8L576.3 84.8L577.4 85.1Q578.4 85.3 578.8 85.8Q579.3 86.3 579.3 87.0L579.3 87.0Q579.3 87.6 579.0 88.1Q578.6 88.6 578.0 88.9Q577.3 89.2 576.5 89.2ZM582.3 81.9L583.8 81.9L583.8 82.9L582.3 82.9L582.3 87.2Q582.3 87.6 582.5 87.9Q582.7 88.1 583.1 88.1L583.1 88.1Q583.2 88.1 583.4 88.0Q583.6 88.0 583.7 88.0L583.7 88.0L584.0 89.0Q583.8 89.0 583.5 89.1Q583.3 89.1 583.1 89.1L583.1 89.1Q582.2 89.1 581.7 88.6Q581.2 88.1 581.2 87.2L581.2 87.2L581.2 82.9L580.1 82.9L580.1 81.9L581.2 81.9L581.2 80.2L582.3 80.2L582.3 81.9ZM588.1 91.8L588.1 91.8Q587.3 91.8 586.7 91.6Q586.2 91.4 585.8 91.1Q585.4 90.7 585.2 90.4L585.2 90.4L586.1 89.8Q586.3 90.0 586.5 90.2Q586.7 90.5 587.1 90.6Q587.5 90.8 588.1 90.8L588.1 90.8Q588.9 90.8 589.5 90.4Q590.0 90.0 590.0 89.1L590.0 89.1L590.0 87.7L589.9 87.7Q589.8 87.9 589.6 88.2Q589.4 88.5 589.0 88.7Q588.6 88.9 587.9 88.9L587.9 88.9Q587.0 88.9 586.3 88.5Q585.7 88.1 585.3 87.3Q584.9 86.5 584.9 85.4L584.9 85.4Q584.9 84.3 585.3 83.5Q585.6 82.7 586.3 82.3Q587.0 81.8 587.9 81.8L587.9 81.8Q588.6 81.8 589.0 82.0Q589.4 82.3 589.6 82.6Q589.8 82.8 590.0 83.0L590.0 83.0L590.1 83.0L590.1 81.9L591.2 81.9L591.2 89.2Q591.2 90.1 590.8 90.7Q590.4 91.3 589.7 91.5Q589.0 91.8 588.1 91.8ZM588.1 87.9L588.1 87.9Q588.7 87.9 589.2 87.6Q589.6 87.3 589.8 86.7Q590.1 86.2 590.1 85.4L590.1 85.4Q590.1 84.6 589.8 84.1Q589.6 83.5 589.2 83.2Q588.7 82.8 588.1 82.8L588.1 82.8Q587.4 82.8 586.9 83.2Q586.5 83.5 586.3 84.1Q586.0 84.7 586.0 85.4L586.0 85.4Q586.0 86.1 586.3 86.7Q586.5 87.2 586.9 87.6Q587.4 87.9 588.1 87.9ZM594.3 89L593.2 89L593.2 81.9L594.3 81.9L594.3 83.0L594.4 83.0Q594.6 82.5 595.1 82.1Q595.6 81.8 596.2 81.8L596.2 81.8Q596.3 81.8 596.5 81.8Q596.7 81.8 596.8 81.8L596.8 81.8L596.8 83.0Q596.7 83.0 596.5 82.9Q596.3 82.9 596.1 82.9L596.1 82.9Q595.6 82.9 595.2 83.1Q594.8 83.3 594.6 83.7Q594.3 84.1 594.3 84.6L594.3 84.6L594.3 89ZM601.1 89.2L601.1 89.2Q600.0 89.2 599.3 88.7Q598.5 88.2 598.1 87.4Q597.7 86.6 597.7 85.5Q597.7 84.4 598.1 83.6Q598.5 82.8 599.2 82.3Q600.0 81.8 600.9 81.8L600.9 81.8Q601.5 81.8 602.0 82.0Q602.6 82.2 603.0 82.6Q603.5 83.0 603.8 83.7Q604.0 84.4 604.0 85.4L604.0 85.4L604.0 85.8L598.9 85.8Q598.9 86.5 599.2 87.0L599.2 87.0Q599.4 87.6 599.9 87.9Q600.4 88.1 601.1 88.1L601.1 88.1Q601.5 88.1 601.8 88.0Q602.2 87.9 602.4 87.7Q602.7 87.4 602.8 87.0L602.8 87.0L603.9 87.3Q603.7 87.9 603.4 88.3Q603.0 88.7 602.4 88.9Q601.8 89.2 601.1 89.2ZM598.9 84.9L598.9 84.9L602.9 84.9Q602.8 84.4 602.7 84.0L602.7 84.0Q602.4 83.4 602.0 83.1Q601.6 82.8 600.9 82.8Q600.3 82.8 599.8 83.1Q599.4 83.5 599.1 84.0L599.1 84.0Q598.9 84.4 598.9 84.9ZM608.8 89.2L608.8 89.2Q607.8 89.2 607.1 88.8Q606.3 88.5 605.9 87.9Q605.5 87.3 605.4 86.5L605.4 86.5L606.6 86.5Q606.7 87.1 607.0 87.4Q607.3 87.7 607.8 87.9Q608.3 88.1 608.8 88.1L608.8 88.1Q609.5 88.1 610.0 87.9Q610.5 87.7 610.8 87.3Q611.1 86.9 611.1 86.4L611.1 86.4Q611.1 85.9 610.8 85.7Q610.6 85.4 610.1 85.2Q609.7 85.0 609.2 84.9L609.2 84.9L608.1 84.5Q606.9 84.2 606.3 83.6Q605.7 83.0 605.7 82.1L605.7 82.1Q605.7 81.3 606.1 80.7Q606.5 80.1 607.3 79.7Q608.0 79.4 608.9 79.4L608.9 79.4Q609.8 79.4 610.6 79.7Q611.3 80.1 611.7 80.6Q612.1 81.2 612.1 81.9L612.1 81.9L611.0 81.9Q610.9 81.2 610.3 80.9Q609.7 80.5 608.9 80.5L608.9 80.5Q608.3 80.5 607.8 80.7Q607.3 80.9 607.1 81.2Q606.8 81.6 606.8 82.0L606.8 82.0Q606.8 82.5 607.1 82.8Q607.5 83.1 607.9 83.3Q608.3 83.5 608.6 83.5L608.6 83.5L609.6 83.8Q610.0 83.9 610.4 84.1Q610.9 84.3 611.3 84.6Q611.7 84.9 612.0 85.3Q612.3 85.8 612.3 86.4L612.3 86.4Q612.3 87.2 611.9 87.8Q611.5 88.4 610.7 88.8Q609.9 89.2 608.8 89.2ZM618.0 89.1L618.0 89.1Q616.8 89.1 615.8 88.5Q614.9 88.0 614.3 86.9Q613.8 85.8 613.8 84.3L613.8 84.3Q613.8 82.8 614.3 81.7Q614.9 80.6 615.8 80.0Q616.8 79.4 618.0 79.4Q619.2 79.4 620.1 80.0Q621.1 80.6 621.6 81.7Q622.2 82.8 622.2 84.3L622.2 84.3Q622.2 85.8 621.6 86.9L621.6 86.9Q621.2 87.7 620.5 88.3L620.5 88.3L621.7 89.9L620.5 89.9L619.7 88.8Q618.9 89.1 618.0 89.1ZM619.0 87.8L617.6 86.0L618.8 86.0L619.8 87.3Q620.3 86.9 620.6 86.3L620.6 86.3Q621.0 85.5 621.0 84.3L621.0 84.3Q621.0 83.1 620.6 82.2Q620.2 81.4 619.5 81.0Q618.8 80.5 618.0 80.5L618.0 80.5Q617.1 80.5 616.4 81.0Q615.8 81.4 615.4 82.2Q614.9 83.1 614.9 84.3L614.9 84.3Q614.9 85.5 615.4 86.3Q615.8 87.1 616.4 87.6Q617.1 88.0 618.0 88.0L618.0 88.0Q618.5 88.0 619.0 87.8L619.0 87.8ZM629.7 89L624.1 89L624.1 79.5L625.3 79.5L625.3 87.9L629.7 87.9L629.7 89Z "/></g><defs><clipPath id="satori_bc-id-2-0-6" clip-path="url(#satori_cp-id)"><path x="658" y="69" width="79" height="30" d="M673,69 h49 a15,15 0 0 1 15,15 v0 a15,15 0 0 1 -15,15 h-49 a15,15 0 0 1 -15,-15 v0 a15,15 0 0 1 15,-15"/></clipPath></defs><mask id="satori_om-id-2-0-6"><rect x="659" y="70" width="77" height="28" fill="#fff" mask="url(#satori_om-id)"/><path width="79" height="30" fill="none" stroke="#000" stroke-width="2" d="M662.393,73.393 A15,15 0 0 1 673,69 h49 a15,15 0 0 1 15,15 v0 a15,15 0 0 1 -15,15 h-49 a15,15 0 0 1 -15,-15 v0 A15,15 0 0 1 662.393,73.393"/></mask><path x="658" y="69" width="79" height="30" fill="rgba(255,255,255,0.04)" d="M673,69 h49 a15,15 0 0 1 15,15 v0 a15,15 0 0 1 -15,15 h-49 a15,15 0 0 1 -15,-15 v0 a15,15 0 0 1 15,-15" clip-path="url(#satori_cp-id)" mask="url(#satori_om-id)"/><path width="79" height="30" clip-path="url(#satori_bc-id-2-0-6)" fill="none" stroke="rgba(255,255,255,0.06)" stroke-width="2" d="M662.393,73.393 A15,15 0 0 1 673,69 h49 a15,15 0 0 1 15,15 v0 a15,15 0 0 1 -15,15 h-49 a15,15 0 0 1 -15,-15 v0 A15,15 0 0 1 662.393,73.393"/><g mask="url(#satori_om-id)" clip-path="url(#satori_cp-id)"><path fill="rgba(255,255,255,0.75)" d="M679.1 89L679.1 89L676.1 89L676.1 79.5L679.2 79.5Q680.6 79.5 681.6 80.1Q682.6 80.7 683.1 81.7Q683.6 82.8 683.6 84.3L683.6 84.3Q683.6 85.7 683.1 86.8Q682.6 87.9 681.5 88.4Q680.5 89 679.1 89ZM677.3 80.6L677.3 87.9L679.0 87.9Q680.2 87.9 680.9 87.5Q681.7 87.1 682.1 86.2Q682.4 85.4 682.4 84.3L682.4 84.3Q682.4 83.1 682.1 82.3Q681.7 81.5 681.0 81.0Q680.2 80.6 679.1 80.6L679.1 80.6L677.3 80.6ZM688.3 89.2L688.3 89.2Q687.3 89.2 686.6 88.7Q685.9 88.2 685.4 87.4Q685.0 86.6 685.0 85.5L685.0 85.5Q685.0 84.4 685.4 83.6Q685.9 82.7 686.6 82.3Q687.3 81.8 688.3 81.8L688.3 81.8Q689.2 81.8 690.0 82.3Q690.7 82.7 691.1 83.6Q691.5 84.4 691.5 85.5L691.5 85.5Q691.5 86.6 691.1 87.4Q690.7 88.2 690.0 88.7Q689.2 89.2 688.3 89.2ZM688.3 88.1L688.3 88.1Q689.0 88.1 689.5 87.8Q689.9 87.4 690.1 86.8Q690.4 86.2 690.4 85.5L690.4 85.5Q690.4 84.8 690.1 84.2Q689.9 83.6 689.5 83.2Q689.0 82.8 688.3 82.8L688.3 82.8Q687.6 82.8 687.1 83.2Q686.6 83.6 686.4 84.2Q686.2 84.8 686.2 85.5L686.2 85.5Q686.2 86.2 686.4 86.8Q686.6 87.4 687.1 87.8Q687.6 88.1 688.3 88.1ZM696.1 89.2L696.1 89.2Q695.1 89.2 694.4 88.7Q693.6 88.2 693.2 87.4Q692.8 86.6 692.8 85.5L692.8 85.5Q692.8 84.4 693.2 83.6Q693.6 82.7 694.4 82.3Q695.1 81.8 696.1 81.8L696.1 81.8Q696.6 81.8 697.0 81.9Q697.5 82.1 697.9 82.3Q698.3 82.6 698.5 82.9Q698.8 83.3 698.9 83.8L698.9 83.8L697.8 84.1Q697.8 83.8 697.6 83.6Q697.5 83.4 697.2 83.2Q697.0 83.0 696.7 82.9Q696.4 82.8 696.1 82.8L696.1 82.8Q695.4 82.8 694.9 83.2Q694.4 83.6 694.2 84.2Q694.0 84.8 694.0 85.5L694.0 85.5Q694.0 86.2 694.2 86.8Q694.4 87.4 694.9 87.8Q695.4 88.1 696.1 88.1L696.1 88.1Q696.4 88.1 696.7 88.0Q697.0 87.9 697.3 87.8Q697.5 87.6 697.6 87.3Q697.8 87.1 697.9 86.8L697.9 86.8L699.0 87.1Q698.8 87.6 698.6 88.0Q698.3 88.4 697.9 88.6Q697.5 88.9 697.1 89.0Q696.6 89.2 696.1 89.2ZM701.7 89L700.6 89L700.6 79.5L701.7 79.5L701.7 85.0L701.9 85.0L704.9 81.9L706.3 81.9L703.4 85.0L706.6 89L705.1 89L702.5 85.7L701.7 86.4L701.7 89ZM710.7 89.2L710.7 89.2Q709.7 89.2 709.0 88.7Q708.2 88.2 707.8 87.4Q707.4 86.6 707.4 85.5Q707.4 84.4 707.8 83.6Q708.2 82.8 708.9 82.3Q709.6 81.8 710.6 81.8L710.6 81.8Q711.2 81.8 711.7 82.0Q712.3 82.2 712.7 82.6Q713.1 83.0 713.4 83.7Q713.7 84.4 713.7 85.4L713.7 85.4L713.7 85.8L708.6 85.8Q708.6 86.5 708.8 87.0L708.8 87.0Q709.1 87.6 709.6 87.9Q710.1 88.1 710.7 88.1L710.7 88.1Q711.1 88.1 711.5 88.0Q711.8 87.9 712.1 87.7Q712.3 87.4 712.5 87.0L712.5 87.0L713.6 87.3Q713.4 87.9 713.0 88.3Q712.6 88.7 712.0 88.9Q711.5 89.2 710.7 89.2ZM708.6 84.9L708.6 84.9L712.5 84.9Q712.5 84.4 712.3 84.0L712.3 84.0Q712.1 83.4 711.7 83.1Q711.2 82.8 710.6 82.8Q710.0 82.8 709.5 83.1Q709.0 83.5 708.8 84.0L708.8 84.0Q708.6 84.4 708.6 84.9ZM716.5 89L715.3 89L715.3 81.9L716.4 81.9L716.4 83.0L716.5 83.0Q716.7 82.5 717.2 82.1Q717.7 81.8 718.3 81.8L718.3 81.8Q718.5 81.8 718.6 81.8Q718.8 81.8 718.9 81.8L718.9 81.8L718.9 83.0Q718.9 83.0 718.7 82.9Q718.5 82.9 718.2 82.9L718.2 82.9Q717.7 82.9 717.3 83.1Q716.9 83.3 716.7 83.7Q716.5 84.1 716.5 84.6L716.5 84.6L716.5 89Z "/></g><mask id="satori_om-id-2-1"><rect x="323" y="111" width="215" height="30" fill="#fff" mask="url(#satori_om-id)"/></mask><defs><clipPath id="satori_bc-id-2-1-0" clip-path="url(#satori_cp-id)"><path x="323" y="111" width="72" height="30" d="M338,111 h42 a15,15 0 0 1 15,15 v0 a15,15 0 0 1 -15,15 h-42 a15,15 0 0 1 -15,-15 v0 a15,15 0 0 1 15,-15"/></clipPath></defs><mask id="satori_om-id-2-1-0"><rect x="324" y="112" width="70" height="28" fill="#fff" mask="url(#satori_om-id)"/><path width="72" height="30" fill="none" stroke="#000" stroke-width="2" d="M327.39300000000003,115.393 A15,15 0 0 1 338,111 h42 a15,15 0 0 1 15,15 v0 a15,15 0 0 1 -15,15 h-42 a15,15 0 0 1 -15,-15 v0 A15,15 0 0 1 327.39300000000003,115.393"/></mask><path x="323" y="111" width="72" height="30" fill="rgba(255,255,255,0.04)" d="M338,111 h42 a15,15 0 0 1 15,15 v0 a15,15 0 0 1 -15,15 h-42 a15,15 0 0 1 -15,-15 v0 a15,15 0 0 1 15,-15" clip-path="url(#satori_cp-id)" mask="url(#satori_om-id)"/><path width="72" height="30" clip-path="url(#satori_bc-id-2-1-0)" fill="none" stroke="rgba(255,255,255,0.06)" stroke-width="2" d="M327.39300000000003,115.393 A15,15 0 0 1 338,111 h42 a15,15 0 0 1 15,15 v0 a15,15 0 0 1 -15,15 h-42 a15,15 0 0 1 -15,-15 v0 A15,15 0 0 1 327.39300000000003,115.393"/><g mask="url(#satori_om-id)" clip-path="url(#satori_cp-id)"><path fill="rgba(255,255,255,0.75)" d="M342.3 131L341.1 131L341.1 121.5L346.9 121.5L346.9 122.6L342.3 122.6L342.3 125.8L346.4 125.8L346.4 126.9L342.3 126.9L342.3 131ZM349.8 131L348.7 131L348.7 123.9L349.8 123.9L349.8 131ZM349.3 122.7L349.3 122.7Q348.9 122.7 348.7 122.5Q348.5 122.3 348.5 122.0L348.5 122.0Q348.5 121.7 348.7 121.4Q348.9 121.2 349.3 121.2L349.3 121.2Q349.6 121.2 349.8 121.4Q350.1 121.7 350.1 122.0L350.1 122.0Q350.1 122.3 349.8 122.5Q349.6 122.7 349.3 122.7ZM354.7 133.8L354.7 133.8Q353.9 133.8 353.3 133.6Q352.8 133.4 352.4 133.1Q352.0 132.7 351.8 132.4L351.8 132.4L352.7 131.8Q352.9 132.0 353.1 132.2Q353.3 132.5 353.7 132.6Q354.1 132.8 354.7 132.8L354.7 132.8Q355.6 132.8 356.1 132.4Q356.6 132.0 356.6 131.1L356.6 131.1L356.6 129.7L356.5 129.7Q356.4 129.9 356.2 130.2Q356.0 130.5 355.6 130.7Q355.2 130.9 354.5 130.9L354.5 130.9Q353.6 130.9 352.9 130.5Q352.3 130.1 351.9 129.3Q351.5 128.5 351.5 127.4L351.5 127.4Q351.5 126.3 351.9 125.5Q352.3 124.7 352.9 124.3Q353.6 123.8 354.5 123.8L354.5 123.8Q355.2 123.8 355.6 124.0Q356.0 124.3 356.2 124.6Q356.5 124.8 356.6 125.0L356.6 125.0L356.7 125.0L356.7 123.9L357.8 123.9L357.8 131.2Q357.8 132.1 357.4 132.7Q357.0 133.3 356.3 133.5Q355.6 133.8 354.7 133.8ZM354.7 129.9L354.7 129.9Q355.3 129.9 355.8 129.6Q356.2 129.3 356.4 128.7Q356.7 128.2 356.7 127.4L356.7 127.4Q356.7 126.6 356.4 126.1Q356.2 125.5 355.8 125.2Q355.3 124.8 354.7 124.8L354.7 124.8Q354.0 124.8 353.5 125.2Q353.1 125.5 352.9 126.1Q352.6 126.7 352.6 127.4L352.6 127.4Q352.6 128.1 352.9 128.7Q353.1 129.2 353.6 129.6Q354.0 129.9 354.7 129.9ZM360.9 131L359.8 131L359.8 123.9L360.9 123.9L360.9 125.2Q361.1 124.8 361.3 124.5L361.3 124.5Q361.6 124.2 362.0 124.0Q362.4 123.8 362.9 123.8L362.9 123.8Q363.7 123.8 364.2 124.3L364.2 124.3Q364.5 124.6 364.7 125.2L364.7 125.2Q364.8 124.9 365.1 124.6L365.1 124.6Q365.4 124.2 365.9 124.0Q366.4 123.8 366.9 123.8L366.9 123.8Q367.6 123.8 368.1 124.0Q368.6 124.3 368.9 124.8Q369.2 125.4 369.2 126.2L369.2 126.2L369.2 131L368.0 131L368.0 126.2Q368.0 125.5 367.6 125.1Q367.2 124.8 366.6 124.8L366.6 124.8Q366.1 124.8 365.8 125.0Q365.4 125.2 365.2 125.6Q365.1 125.9 365.1 126.4L365.1 126.4L365.1 131L363.9 131L363.9 126.1Q363.9 125.5 363.5 125.2Q363.1 124.8 362.5 124.8L362.5 124.8Q362.1 124.8 361.8 125.0Q361.4 125.2 361.2 125.6Q360.9 126.0 360.9 126.5L360.9 126.5L360.9 131ZM373.2 131.2L373.2 131.2Q372.5 131.2 372.0 130.9Q371.4 130.7 371.1 130.2Q370.8 129.7 370.8 129.0L370.8 129.0Q370.8 128.4 371.0 128.0Q371.2 127.6 371.6 127.4Q372.0 127.2 372.5 127.1Q373.0 127.0 373.5 126.9L373.5 126.9Q374.2 126.8 374.6 126.8Q375.0 126.7 375.1 126.6Q375.3 126.5 375.3 126.2L375.3 126.2L375.3 126.2Q375.3 125.8 375.2 125.5Q375.0 125.1 374.7 125.0Q374.3 124.8 373.9 124.8L373.9 124.8Q373.3 124.8 373.0 125.0Q372.6 125.1 372.4 125.4Q372.2 125.6 372.1 125.9L372.1 125.9L371.0 125.5Q371.2 124.8 371.7 124.5Q372.2 124.1 372.7 124.0Q373.3 123.8 373.8 123.8L373.8 123.8Q374.2 123.8 374.6 123.9Q375.1 124.0 375.5 124.2Q375.9 124.5 376.2 125.0Q376.5 125.5 376.5 126.3L376.5 126.3L376.5 131L375.4 131L375.4 130.0L375.3 130.0Q375.2 130.3 374.9 130.5Q374.6 130.8 374.2 131.0Q373.8 131.2 373.2 131.2ZM373.4 130.2L373.4 130.2Q374.0 130.2 374.4 129.9Q374.9 129.7 375.1 129.3Q375.3 128.9 375.3 128.4L375.3 128.4L375.3 127.5Q375.3 127.5 375.0 127.6Q374.8 127.7 374.5 127.7Q374.2 127.8 373.9 127.8Q373.6 127.8 373.5 127.9L373.5 127.9Q373.1 127.9 372.7 128.0Q372.3 128.2 372.1 128.4Q371.9 128.6 371.9 129.0L371.9 129.0Q371.9 129.4 372.1 129.7Q372.3 129.9 372.6 130.0Q372.9 130.2 373.4 130.2Z "/></g><defs><clipPath id="satori_bc-id-2-1-1" clip-path="url(#satori_cp-id)"><path x="405" y="111" width="62" height="30" d="M420,111 h32 a15,15 0 0 1 15,15 v0 a15,15 0 0 1 -15,15 h-32 a15,15 0 0 1 -15,-15 v0 a15,15 0 0 1 15,-15"/></clipPath></defs><mask id="satori_om-id-2-1-1"><rect x="406" y="112" width="60" height="28" fill="#fff" mask="url(#satori_om-id)"/><path width="62" height="30" fill="none" stroke="#000" stroke-width="2" d="M409.39300000000003,115.393 A15,15 0 0 1 420,111 h32 a15,15 0 0 1 15,15 v0 a15,15 0 0 1 -15,15 h-32 a15,15 0 0 1 -15,-15 v0 A15,15 0 0 1 409.39300000000003,115.393"/></mask><path x="405" y="111" width="62" height="30" fill="rgba(255,255,255,0.04)" d="M420,111 h32 a15,15 0 0 1 15,15 v0 a15,15 0 0 1 -15,15 h-32 a15,15 0 0 1 -15,-15 v0 a15,15 0 0 1 15,-15" clip-path="url(#satori_cp-id)" mask="url(#satori_om-id)"/><path width="62" height="30" clip-path="url(#satori_bc-id-2-1-1)" fill="none" stroke="rgba(255,255,255,0.06)" stroke-width="2" d="M409.39300000000003,115.393 A15,15 0 0 1 420,111 h32 a15,15 0 0 1 15,15 v0 a15,15 0 0 1 -15,15 h-32 a15,15 0 0 1 -15,-15 v0 A15,15 0 0 1 409.39300000000003,115.393"/><g mask="url(#satori_om-id)" clip-path="url(#satori_cp-id)"><path fill="rgba(255,255,255,0.75)" d="M426.2 131.2L426.2 131.2Q425.1 131.2 424.4 130.8Q423.6 130.5 423.2 129.9Q422.8 129.3 422.7 128.5L422.7 128.5L424.0 128.5Q424.0 129.1 424.3 129.4Q424.6 129.7 425.1 129.9Q425.6 130.1 426.2 130.1L426.2 130.1Q426.8 130.1 427.3 129.9Q427.8 129.7 428.1 129.3Q428.4 128.9 428.4 128.4L428.4 128.4Q428.4 127.9 428.2 127.7Q427.9 127.4 427.5 127.2Q427.1 127.0 426.6 126.9L426.6 126.9L425.4 126.5Q424.3 126.2 423.6 125.6Q423.0 125.0 423.0 124.1L423.0 124.1Q423.0 123.3 423.4 122.7Q423.9 122.1 424.6 121.7Q425.3 121.4 426.3 121.4L426.3 121.4Q427.2 121.4 427.9 121.7Q428.6 122.1 429.0 122.6Q429.5 123.2 429.5 123.9L429.5 123.9L428.3 123.9Q428.2 123.2 427.6 122.9Q427.1 122.5 426.2 122.5L426.2 122.5Q425.6 122.5 425.1 122.7Q424.7 122.9 424.4 123.2Q424.2 123.6 424.2 124.0L424.2 124.0Q424.2 124.5 424.5 124.8Q424.8 125.1 425.2 125.3Q425.6 125.5 426.0 125.5L426.0 125.5L426.9 125.8Q427.3 125.9 427.8 126.1Q428.2 126.3 428.6 126.6Q429.1 126.9 429.3 127.3Q429.6 127.8 429.6 128.4L429.6 128.4Q429.6 129.2 429.2 129.8Q428.8 130.4 428.0 130.8Q427.3 131.2 426.2 131.2ZM435.5 131L434.1 131L430.7 121.5L431.9 121.5L433.9 127.2Q434.1 127.6 434.4 128.4L434.4 128.4Q434.6 129.1 434.8 130.0L434.8 130.0Q435.1 129.1 435.3 128.4L435.3 128.4Q435.6 127.6 435.7 127.2L435.7 127.2L437.7 121.5L439.0 121.5L435.5 131ZM444.3 131.1L444.3 131.1Q443.1 131.1 442.1 130.5Q441.2 129.9 440.6 128.9Q440.1 127.8 440.1 126.3L440.1 126.3Q440.1 124.8 440.6 123.7Q441.2 122.6 442.1 122.0Q443.0 121.4 444.2 121.4L444.2 121.4Q445.0 121.4 445.6 121.6Q446.3 121.9 446.8 122.3Q447.3 122.7 447.7 123.3Q448 123.8 448.1 124.5L448.1 124.5L446.9 124.5Q446.7 124.0 446.5 123.7Q446.3 123.3 445.9 123.1Q445.6 122.8 445.2 122.7Q444.8 122.5 444.2 122.5L444.2 122.5Q443.4 122.5 442.7 123.0Q442.1 123.4 441.7 124.2Q441.3 125.1 441.3 126.3L441.3 126.3Q441.3 127.5 441.7 128.3Q442.1 129.1 442.8 129.6Q443.4 130.0 444.3 130.0L444.3 130.0Q445.1 130.0 445.7 129.7Q446.3 129.3 446.7 128.7L446.7 128.7Q447.0 128.1 447.0 127.3L447.0 127.3L444.6 127.3L444.6 126.2L448.2 126.2L448.2 127.3Q448.2 128.5 447.7 129.3Q447.2 130.2 446.3 130.7Q445.4 131.1 444.3 131.1Z "/></g><defs><clipPath id="satori_bc-id-2-1-2" clip-path="url(#satori_cp-id)"><path x="477" y="111" width="61" height="30" d="M492,111 h31 a15,15 0 0 1 15,15 v0 a15,15 0 0 1 -15,15 h-31 a15,15 0 0 1 -15,-15 v0 a15,15 0 0 1 15,-15"/></clipPath></defs><mask id="satori_om-id-2-1-2"><rect x="478" y="112" width="59" height="28" fill="#fff" mask="url(#satori_om-id)"/><path width="61" height="30" fill="none" stroke="#000" stroke-width="2" d="M481.39300000000003,115.393 A15,15 0 0 1 492,111 h31 a15,15 0 0 1 15,15 v0 a15,15 0 0 1 -15,15 h-31 a15,15 0 0 1 -15,-15 v0 A15,15 0 0 1 481.39300000000003,115.393"/></mask><path x="477" y="111" width="61" height="30" fill="rgba(255,255,255,0.04)" d="M492,111 h31 a15,15 0 0 1 15,15 v0 a15,15 0 0 1 -15,15 h-31 a15,15 0 0 1 -15,-15 v0 a15,15 0 0 1 15,-15" clip-path="url(#satori_cp-id)" mask="url(#satori_om-id)"/><path width="61" height="30" clip-path="url(#satori_bc-id-2-1-2)" fill="none" stroke="rgba(255,255,255,0.06)" stroke-width="2" d="M481.39300000000003,115.393 A15,15 0 0 1 492,111 h31 a15,15 0 0 1 15,15 v0 a15,15 0 0 1 -15,15 h-31 a15,15 0 0 1 -15,-15 v0 A15,15 0 0 1 481.39300000000003,115.393"/><g mask="url(#satori_om-id)" clip-path="url(#satori_cp-id)"><path fill="rgba(255,255,255,0.75)" d="M499.0 131.1L499.0 131.1Q497.8 131.1 496.8 130.5Q495.9 130.0 495.3 128.9Q494.8 127.8 494.8 126.3L494.8 126.3Q494.8 124.8 495.3 123.7Q495.9 122.6 496.8 122.0Q497.8 121.4 499.0 121.4L499.0 121.4Q499.7 121.4 500.3 121.6Q501.0 121.8 501.5 122.2Q502.0 122.6 502.3 123.2Q502.7 123.8 502.8 124.5L502.8 124.5L501.6 124.5Q501.5 124.0 501.2 123.7Q501.0 123.3 500.6 123.0Q500.3 122.8 499.9 122.7Q499.4 122.5 499.0 122.5L499.0 122.5Q498.1 122.5 497.4 123.0Q496.7 123.4 496.3 124.2Q495.9 125.1 495.9 126.3L495.9 126.3Q495.9 127.5 496.4 128.3Q496.8 129.2 497.4 129.6Q498.1 130.0 499.0 130.0L499.0 130.0Q499.4 130.0 499.9 129.9Q500.3 129.7 500.6 129.5Q501.0 129.2 501.2 128.9Q501.5 128.5 501.6 128.0L501.6 128.0L502.8 128.0Q502.7 128.7 502.3 129.3Q502.0 129.9 501.5 130.3Q501.0 130.7 500.3 130.9Q499.7 131.1 499.0 131.1ZM507.7 131.2L507.7 131.2Q506.6 131.2 505.9 130.8Q505.1 130.5 504.7 129.9Q504.3 129.3 504.2 128.5L504.2 128.5L505.5 128.5Q505.5 129.1 505.8 129.4Q506.1 129.7 506.6 129.9Q507.1 130.1 507.7 130.1L507.7 130.1Q508.3 130.1 508.8 129.9Q509.3 129.7 509.6 129.3Q509.9 128.9 509.9 128.4L509.9 128.4Q509.9 127.9 509.7 127.7Q509.4 127.4 509.0 127.2Q508.6 127.0 508.1 126.9L508.1 126.9L506.9 126.5Q505.8 126.2 505.1 125.6Q504.5 125.0 504.5 124.1L504.5 124.1Q504.5 123.3 504.9 122.7Q505.4 122.1 506.1 121.7Q506.8 121.4 507.7 121.4L507.7 121.4Q508.7 121.4 509.4 121.7Q510.1 122.1 510.5 122.6Q510.9 123.2 511.0 123.9L511.0 123.9L509.8 123.9Q509.7 123.2 509.1 122.9Q508.6 122.5 507.7 122.5L507.7 122.5Q507.1 122.5 506.6 122.7Q506.2 122.9 505.9 123.2Q505.7 123.6 505.7 124.0L505.7 124.0Q505.7 124.5 506.0 124.8Q506.3 125.1 506.7 125.3Q507.1 125.5 507.5 125.5L507.5 125.5L508.4 125.8Q508.8 125.9 509.3 126.1Q509.7 126.3 510.1 126.6Q510.6 126.9 510.8 127.3Q511.1 127.8 511.1 128.4L511.1 128.4Q511.1 129.2 510.7 129.8Q510.3 130.4 509.5 130.8Q508.8 131.2 507.7 131.2ZM516.0 131.2L516.0 131.2Q515.0 131.2 514.2 130.8Q513.5 130.5 513.1 129.9Q512.6 129.3 512.6 128.5L512.6 128.5L513.8 128.5Q513.9 129.1 514.2 129.4Q514.5 129.7 515.0 129.9Q515.5 130.1 516.0 130.1L516.0 130.1Q516.6 130.1 517.2 129.9Q517.7 129.7 518.0 129.3Q518.3 128.9 518.3 128.4L518.3 128.4Q518.3 127.9 518.0 127.7Q517.8 127.4 517.3 127.2Q516.9 127.0 516.4 126.9L516.4 126.9L515.3 126.5Q514.1 126.2 513.5 125.6Q512.8 125.0 512.8 124.1L512.8 124.1Q512.8 123.3 513.3 122.7Q513.7 122.1 514.4 121.7Q515.2 121.4 516.1 121.4L516.1 121.4Q517.0 121.4 517.7 121.7Q518.5 122.1 518.9 122.6Q519.3 123.2 519.3 123.9L519.3 123.9L518.1 123.9Q518.1 123.2 517.5 122.9Q516.9 122.5 516.1 122.5L516.1 122.5Q515.4 122.5 515.0 122.7Q514.5 122.9 514.3 123.2Q514.0 123.6 514.0 124.0L514.0 124.0Q514.0 124.5 514.3 124.8Q514.6 125.1 515.1 125.3Q515.5 125.5 515.8 125.5L515.8 125.5L516.8 125.8Q517.1 125.9 517.6 126.1Q518.1 126.3 518.5 126.6Q518.9 126.9 519.2 127.3Q519.4 127.8 519.4 128.4L519.4 128.4Q519.4 129.2 519.0 129.8Q518.6 130.4 517.9 130.8Q517.1 131.2 516.0 131.2Z "/></g></svg>