<!-- Generated by readme-aura https://github.com/collectioneur/readme-aura -->
<svg width="130" height="40" viewBox="0 0 130 40" xmlns="http://www.w3.org/2000/svg"><mask id="satori_om-id"><rect x="0" y="0" width="130" height="40" fill="#fff"/></mask><path x="0" y="0" width="130" height="40" fill="#0f0f13" d="M20,0 h90 a20,20 0 0 1 20,20 v0 a20,20 0 0 1 -20,20 h-90 a20,20 0 0 1 -20,-20 v0 a20,20 0 0 1 20,-20"/><clipPath id="satori_cp-id-0"><rect x="0" y="0" width="130" height="40"/></clipPath><mask id="satori_om-id-0"><rect x="0" y="0" width="130" height="40" fill="#fff"/></mask><svg x="0" y="0" width="130" height="40" preserveAspectRatio="none" clip-path="url(#satori_cp-id-0)" mask="url(#satori_om-id-0)"><defs><linearGradient id="smb-grad-LinkedIn" gradientUnits="objectBoundingBox" x1="0" y1="0" x2="1" y2="1"><stop offset="0%" stop-color="#0077b5"></stop><stop offset="50%" stop-color="#00bfff"></stop><stop offset="100%" stop-color="#0077b5"></stop><animateTransform attributeName="gradientTransform" type="rotate" from="0 0.5 0.5" to="360 0.5 0.5" dur="8s" repeatCount="indefinite"></animateTransform></linearGradient></defs><rect x="1.25" y="1.25" width="127.5" height="37.5" rx="18.75" ry="18.75" fill="none" stroke="url(#smb-grad-LinkedIn)" stroke-width="2" stroke-linecap="round" stroke-linejoin="round"></rect><rect x="0.25" y="0.25" width="129.5" height="39.5" rx="19.75" ry="19.75" fill="none" stroke="#AAAAAA" stroke-width="0.5" stroke-linecap="round" stroke-linejoin="round"></rect></svg><mask id="satori_om-id-0-0"><rect x="0" y="0" width="0" height="40" fill="#fff"/></mask><mask id="satori_om-id-0-0-0"><rect x="0" y="0" width="0" height="40" fill="#fff"/></mask><mask id="satori_om-id-0-0-0-0"><rect x="0" y="0" width="0" height="40" fill="#fff"/></mask><mask id="satori_om-id-0-0-0-1"><rect x="0" y="0" width="0" height="40" fill="#fff"/></mask><mask id="satori_om-id-0-0-0-2"><rect x="0" y="0" width="0" height="40" fill="#fff"/></mask><mask id="satori_om-id-0-0-0-3"><rect x="0" y="0" width="0" height="40" fill="#fff"/></mask><mask id="satori_om-id-0-1"><rect x="0" y="0" width="0" height="40" fill="#fff"/></mask><mask id="satori_om-id-0-2"><rect x="0" y="0" width="0" height="40" fill="#fff"/></mask><mask id="satori_om-id-1"><rect x="0" y="0" width="130" height="40" fill="#fff"/></mask><mask id="satori_om-id-1-0"><rect x="39" y="12" width="53" height="16" fill="#fff"/></mask><g  ><path fill="#f5f5f5" d="M45.9 25L39.9 25L39.9 15.5L41.8 15.5L41.8 23.4L45.9 23.4L45.9 25ZM48.9 25L47.0 25L47.0 17.9L48.9 17.9L48.9 25ZM47.9 17.0L47.9 17.0Q47.5 17.0 47.2 16.7Q46.9 16.4 46.9 16.0L46.9 16.0Q46.9 15.6 47.2 15.3Q47.5 15.0 47.9 15.0L47.9 15.0Q48.3 15.0 48.7 15.3Q49.0 15.6 49.0 16.0L49.0 16.0Q49.0 16.4 48.7 16.7Q48.3 17.0 47.9 17.0ZM52.2 20.9L52.2 20.9L52.2 25L50.3 25L50.3 17.9L52.1 17.9L52.1 19.4Q52.4 18.7 52.9 18.3L52.9 18.3Q53.4 17.8 54.3 17.8L54.3 17.8Q55.1 17.8 55.6 18.1Q56.2 18.5 56.5 19.1Q56.8 19.7 56.8 20.5L56.8 20.5L56.8 25L54.8 25L54.8 20.8Q54.8 20.2 54.5 19.8Q54.2 19.4 53.6 19.4L53.6 19.4Q53.2 19.4 52.9 19.6Q52.5 19.8 52.4 20.1Q52.2 20.4 52.2 20.9ZM60.1 25L58.2 25L58.2 15.5L60.1 15.5L60.1 20.6L60.2 20.6L62.5 17.9L64.7 17.9L62.1 21.0L64.9 25L62.6 25L60.6 22.1L60.1 22.7L60.1 25ZM68.7 25.1L68.7 25.1Q67.6 25.1 66.9 24.7Q66.1 24.3 65.6 23.4Q65.2 22.6 65.2 21.5L65.2 21.5Q65.2 20.4 65.6 19.6Q66.1 18.7 66.8 18.3Q67.6 17.8 68.6 17.8L68.6 17.8Q69.3 17.8 69.9 18.0Q70.5 18.3 71.0 18.7Q71.4 19.2 71.7 19.8Q72.0 20.5 72.0 21.4L72.0 21.4L72.0 21.9L67.1 21.9Q67.1 22.5 67.3 22.9L67.3 22.9Q67.5 23.3 67.9 23.5Q68.3 23.7 68.8 23.7L68.8 23.7Q69.1 23.7 69.4 23.6Q69.6 23.5 69.8 23.3Q70.0 23.1 70.1 22.9L70.1 22.9L71.9 23.2Q71.7 23.8 71.3 24.2Q70.8 24.7 70.2 24.9Q69.6 25.1 68.7 25.1ZM67.1 20.8L67.1 20.8L70.1 20.8Q70.1 20.4 70.0 20.1L70.0 20.1Q69.8 19.7 69.5 19.5Q69.1 19.2 68.6 19.2L68.6 19.2Q68.2 19.2 67.8 19.5Q67.5 19.7 67.3 20.1L67.3 20.1Q67.2 20.4 67.1 20.8ZM75.7 25.1L75.7 25.1Q74.8 25.1 74.2 24.7Q73.5 24.3 73.1 23.5Q72.8 22.6 72.8 21.5L72.8 21.5Q72.8 20.3 73.2 19.4Q73.6 18.6 74.2 18.2Q74.9 17.8 75.6 17.8L75.6 17.8Q76.3 17.8 76.7 18.0Q77.1 18.2 77.3 18.5Q77.5 18.8 77.7 19.1L77.7 19.1L77.7 19.1L77.7 15.5L79.6 15.5L79.6 25L77.8 25L77.8 23.9L77.7 23.9Q77.5 24.1 77.3 24.4Q77.0 24.7 76.6 24.9Q76.2 25.1 75.7 25.1ZM76.2 23.6L76.2 23.6Q76.7 23.6 77.1 23.3Q77.4 23.1 77.6 22.6Q77.8 22.1 77.8 21.5L77.8 21.5Q77.8 20.8 77.6 20.3Q77.4 19.9 77.1 19.6Q76.7 19.3 76.2 19.3L76.2 19.3Q75.7 19.3 75.4 19.6Q75.1 19.9 74.9 20.4Q74.7 20.8 74.7 21.5L74.7 21.5Q74.7 22.1 74.9 22.6Q75.1 23.0 75.4 23.3Q75.7 23.6 76.2 23.6ZM81.1 15.5L83.0 15.5L83.0 25L81.1 25L81.1 15.5ZM86.4 20.9L86.4 20.9L86.4 25L84.5 25L84.5 17.9L86.3 17.9L86.3 19.4Q86.6 18.7 87.1 18.3L87.1 18.3Q87.6 17.8 88.5 17.8L88.5 17.8Q89.3 17.8 89.8 18.1Q90.4 18.5 90.7 19.1Q91.0 19.7 91.0 20.5L91.0 20.5L91.0 25L89.1 25L89.1 20.8Q89.1 20.2 88.7 19.8Q88.4 19.4 87.8 19.4L87.8 19.4Q87.4 19.4 87.1 19.6Q86.8 19.8 86.6 20.1Q86.4 20.4 86.4 20.9Z "/></g></svg>